<?xml version="1.0" encoding="UTF-8"?>
<!DOCTYPE svg PUBLIC "-//W3C//DTD SVG 1.1//EN" "http://www.w3.org/Graphics/SVG/1.1/DTD/svg11.dtd">
<svg xmlns="http://www.w3.org/2000/svg" version="1.1" width="267px" height="189px" style="shape-rendering:geometricPrecision; text-rendering:geometricPrecision; image-rendering:optimizeQuality; fill-rule:evenodd; clip-rule:evenodd" xmlns:xlink="http://www.w3.org/1999/xlink">
<g><path style="opacity:0.006" fill="#fefffe" d="M 126.5,19.5 C 126.897,18.475 127.563,18.3083 128.5,19C 127.906,19.4643 127.239,19.631 126.5,19.5 Z"/></g>
<g><path style="opacity:0.086" fill="#dbdcdb" d="M 124.5,19.5 C 125.833,20.1667 125.833,20.1667 124.5,19.5 Z"/></g>
<g><path style="opacity:0.098" fill="#d5e0df" d="M 129.5,19.5 C 130.833,20.1667 130.833,20.1667 129.5,19.5 Z"/></g>
<g><path style="opacity:0.004" fill="#fefffe" d="M 106.5,20.5 C 107.833,21.1667 107.833,21.1667 106.5,20.5 Z"/></g>
<g><path style="opacity:0.008" fill="#fefffe" d="M 122.5,21.5 C 123.833,22.1667 123.833,22.1667 122.5,21.5 Z"/></g>
<g><path style="opacity:0.004" fill="#fefffe" d="M 131.5,21.5 C 132.833,22.1667 132.833,22.1667 131.5,21.5 Z"/></g>
<g><path style="opacity:0.004" fill="#deeef3" d="M 71.5,23.5 C 70.5,24.1667 69.5,24.8333 68.5,25.5C 67.8333,25.5 67.1667,25.5 66.5,25.5C 67.6354,23.7868 69.302,23.1201 71.5,23.5 Z"/></g>
<g><path style="opacity:0.004" fill="#fefffe" d="M 154.5,23.5 C 155.833,24.1667 155.833,24.1667 154.5,23.5 Z"/></g>
<g><path style="opacity:0.02" fill="#fefffe" d="M 180.5,23.5 C 181.833,24.1667 181.833,24.1667 180.5,23.5 Z"/></g>
<g><path style="opacity:0.008" fill="#fefffe" d="M 209.5,23.5 C 210.833,24.1667 210.833,24.1667 209.5,23.5 Z"/></g>
<g><path style="opacity:1" fill="#395060" d="M 105.5,22.5 C 106.848,23.1859 108.015,24.1859 109,25.5C 110.011,24.6634 111.178,24.33 112.5,24.5C 112.833,24.5 113.167,24.5 113.5,24.5C 113.842,25.3382 114.508,25.6716 115.5,25.5C 116.289,25.7828 116.956,26.2828 117.5,27C 116.316,28.1455 116.316,29.3121 117.5,30.5C 115.662,30.9769 113.828,31.3103 112,31.5C 110.908,29.8834 109.408,28.8834 107.5,28.5C 103.79,26.8643 99.7905,26.1977 95.5,26.5C 88.2716,26.3365 80.9383,27.0031 73.5,28.5C 72.3281,27.2947 70.9948,27.2947 69.5,28.5C 68.6143,27.675 68.281,26.675 68.5,25.5C 69.5,24.8333 70.5,24.1667 71.5,23.5C 82.8513,20.0833 94.1846,19.75 105.5,22.5 Z"/></g>
<g><path style="opacity:1" fill="#728c96" d="M 105.5,22.5 C 108.152,22.4095 110.485,23.0762 112.5,24.5C 111.178,24.33 110.011,24.6634 109,25.5C 108.015,24.1859 106.848,23.1859 105.5,22.5 Z"/></g>
<g><path style="opacity:0.027" fill="#d4f2f3" d="M 115.5,25.5 C 114.508,25.6716 113.842,25.3382 113.5,24.5C 114.738,23.5876 116.072,23.4209 117.5,24C 116.584,24.2784 115.918,24.7784 115.5,25.5 Z"/></g>
<g><path style="opacity:0.459" fill="#b8bfc0" d="M 188.5,26.5 C 187.791,25.596 186.791,25.2627 185.5,25.5C 186.281,23.6777 187.448,23.0111 189,23.5C 189.74,24.7494 189.573,25.7494 188.5,26.5 Z"/></g>
<g><path style="opacity:0.992" fill="#30444e" d="M 153.5,25.5 C 154.492,25.3284 155.158,25.6618 155.5,26.5C 155.833,27.5 156.5,28.1667 157.5,28.5C 159.292,32.1849 159.625,35.8515 158.5,39.5C 157.778,39.0825 157.278,38.4158 157,37.5C 156.667,38.5 156.333,39.5 156,40.5C 155.819,37.3054 155.319,34.3054 154.5,31.5C 153.992,29.7673 153.159,29.434 152,30.5C 151.536,29.9056 151.369,29.2389 151.5,28.5C 150.054,27.3871 148.387,27.2204 146.5,28C 145.748,28.6708 145.414,29.5041 145.5,30.5C 144.833,30.5 144.167,30.5 143.5,30.5C 143.5,28.8333 143.5,27.1667 143.5,25.5C 146.833,25.5 150.167,25.5 153.5,25.5 Z M 148.5,30.5 C 145.999,30.4891 145.832,29.8224 148,28.5C 148.464,29.0944 148.631,29.7611 148.5,30.5 Z"/></g>
<g><path style="opacity:0.01" fill="#f3f9f9" d="M 155.5,26.5 C 156.833,26.5 157.5,27.1667 157.5,28.5C 156.5,28.1667 155.833,27.5 155.5,26.5 Z"/></g>
<g><path style="opacity:0.009" fill="#d1e2e7" d="M 95.5,26.5 C 99.7905,26.1977 103.79,26.8643 107.5,28.5C 103.267,28.4613 99.2671,27.7947 95.5,26.5 Z"/></g>
<g><path style="opacity:0.051" fill="#eaebea" d="M 209.5,27.5 C 210.833,28.1667 210.833,28.1667 209.5,27.5 Z"/></g>
<g><path style="opacity:0.063" fill="#dedfde" d="M 228.5,28.5 C 227.833,27.1667 227.833,27.1667 228.5,28.5 Z"/></g>
<g><path style="opacity:0.004" fill="#fefffe" d="M 160.5,29.5 C 160.897,28.475 161.563,28.3083 162.5,29C 161.906,29.4643 161.239,29.631 160.5,29.5 Z"/></g>
<g><path style="opacity:0.008" fill="#fefffe" d="M 191.5,29.5 C 191.897,28.475 192.563,28.3083 193.5,29C 192.906,29.4643 192.239,29.631 191.5,29.5 Z"/></g>
<g><path style="opacity:0.035" fill="#e2e3e2" d="M 228.5,28.5 C 229.833,29.1667 229.833,29.1667 228.5,28.5 Z"/></g>
<g><path style="opacity:0.008" fill="#fefffe" d="M 74.5,30.5 C 74.8966,29.475 75.5632,29.3083 76.5,30C 75.9056,30.4643 75.2389,30.631 74.5,30.5 Z"/></g>
<g><path style="opacity:0.012" fill="#fefffe" d="M 108.5,30.5 C 109.833,31.1667 109.833,31.1667 108.5,30.5 Z"/></g>
<g><path style="opacity:0.035" fill="#e2e3e2" d="M 117.5,30.5 C 118.833,31.1667 118.833,31.1667 117.5,30.5 Z"/></g>
<g><path style="opacity:0.999" fill="#496475" d="M 129.5,164.5 C 129.667,117.165 129.5,69.8322 129,22.5C 128.5,46.8311 128.333,71.1644 128.5,95.5C 127.833,95.5 127.167,95.5 126.5,95.5C 126.831,70.9943 126.498,46.6609 125.5,22.5C 125.5,22.1667 125.5,21.8333 125.5,21.5C 126.802,20.1931 128.135,20.1931 129.5,21.5C 130.831,69.3316 130.831,116.998 129.5,164.5 Z"/></g>
<g><path style="opacity:0.051" fill="#eaebea" d="M 161.5,30.5 C 162.833,31.1667 162.833,31.1667 161.5,30.5 Z"/></g>
<g><path style="opacity:0.086" fill="#d8e5ea" d="M 57.5,29.5 C 55.6508,30.593 53.9842,31.9263 52.5,33.5C 51.8333,33.5 51.1667,33.5 50.5,33.5C 52.0484,30.2354 54.3817,28.902 57.5,29.5 Z"/></g>
<g><path style="opacity:0.654" fill="#7f929c" d="M 151.5,28.5 C 150.5,29.1667 149.5,29.8333 148.5,30.5C 146.539,33.8415 146.039,37.5081 147,41.5C 147.308,42.3081 147.808,42.9747 148.5,43.5C 149.687,42.3473 150.687,42.3473 151.5,43.5C 149.777,44.807 147.943,44.807 146,43.5C 145.501,39.1794 145.334,34.8461 145.5,30.5C 145.414,29.5041 145.748,28.6708 146.5,28C 148.387,27.2204 150.054,27.3871 151.5,28.5 Z M 148.5,30.5 C 148.631,29.7611 148.464,29.0944 148,28.5C 145.832,29.8224 145.999,30.4891 148.5,30.5 Z"/></g>
<g><path style="opacity:0.231" fill="#b6c9ce" d="M 167.5,60.5 C 166.505,49.012 166.172,37.3453 166.5,25.5C 165.5,25.5 164.5,25.5 163.5,25.5C 164.531,24.7515 165.698,24.0848 167,23.5C 167.5,35.8288 167.667,48.1622 167.5,60.5 Z"/></g>
<g><path style="opacity:1" fill="#112c35" d="M 179.5,25.5 C 179.5,26.1667 179.5,26.8333 179.5,27.5C 178.624,27.3691 177.957,27.7025 177.5,28.5C 178.343,39.8531 178.676,51.1864 178.5,62.5C 177.167,62.5 176.5,61.8333 176.5,60.5C 176.5,48.8333 176.5,37.1667 176.5,25.5C 177.5,25.5 178.5,25.5 179.5,25.5 Z"/></g>
<g><path style="opacity:0.92" fill="#314852" d="M 179.5,27.5 C 179.192,37.5527 179.525,47.5527 180.5,57.5C 179.972,59.3361 179.306,61.0028 178.5,62.5C 178.676,51.1864 178.343,39.8531 177.5,28.5C 177.957,27.7025 178.624,27.3691 179.5,27.5 Z"/></g>
<g><path style="opacity:0.995" fill="#3c4e5e" d="M 185.5,25.5 C 186.791,25.2627 187.791,25.596 188.5,26.5C 189.641,38.6692 189.641,51.0025 188.5,63.5C 187.67,53.0079 187.17,42.3412 187,31.5C 186.83,42.3412 186.33,53.0079 185.5,63.5C 185.5,51.8333 185.5,40.1667 185.5,28.5C 184.884,27.2022 184.884,26.2022 185.5,25.5 Z"/></g>
<g><path style="opacity:0.468" fill="#809ba0" d="M 220.5,28.5 C 218.833,28.5 217.167,28.5 215.5,28.5C 215.684,39.9866 215.684,51.3199 215.5,62.5C 217.167,62.5 218.833,62.5 220.5,62.5C 218.735,63.4614 216.735,63.7947 214.5,63.5C 214.5,51.5 214.5,39.5 214.5,27.5C 216.735,27.2053 218.735,27.5386 220.5,28.5 Z"/></g>
<g><path style="opacity:1" fill="#324c5e" d="M 66.5,25.5 C 67.1667,25.5 67.8333,25.5 68.5,25.5C 68.281,26.675 68.6143,27.675 69.5,28.5C 70.9948,27.2947 72.3281,27.2947 73.5,28.5C 71.1098,30.0198 68.4432,31.0198 65.5,31.5C 63.847,31.6596 62.5137,32.3263 61.5,33.5C 60.8333,33.5 60.5,33.8333 60.5,34.5C 58.4297,36.3639 56.4297,37.6972 54.5,38.5C 53.8333,38.5 53.1667,38.5 52.5,38.5C 53.562,36.9008 53.562,35.2341 52.5,33.5C 53.9842,31.9263 55.6508,30.593 57.5,29.5C 57.3932,27.6214 57.8932,27.2881 59,28.5C 60,27.5 61,26.5 62,25.5C 63.2988,25.9662 64.7988,25.9662 66.5,25.5 Z"/></g>
<g><path style="opacity:0.012" fill="#dbe2e7" d="M 65.5,31.5 C 64.713,33.1042 63.3797,33.7709 61.5,33.5C 62.5137,32.3263 63.847,31.6596 65.5,31.5 Z"/></g>
<g><path style="opacity:0.988" fill="#2a4049" d="M 163.5,25.5 C 164.5,25.5 165.5,25.5 166.5,25.5C 166.172,37.3453 166.505,49.012 167.5,60.5C 168.312,61.9931 169.645,62.6598 171.5,62.5C 173.355,62.6598 174.688,61.9931 175.5,60.5C 175.833,60.5 176.167,60.5 176.5,60.5C 176.5,61.8333 177.167,62.5 178.5,62.5C 178.5,63.1667 178.5,63.8333 178.5,64.5C 177.833,64.5 177.5,64.8333 177.5,65.5C 174.601,67.3159 171.601,67.6493 168.5,66.5C 167.738,64.7376 166.404,63.7376 164.5,63.5C 163.911,61.6481 163.244,59.8148 162.5,58C 163.487,47.2483 163.82,36.415 163.5,25.5 Z"/></g>
<g><path style="opacity:1" fill="#2a475b" d="M 188.5,63.5 C 189.501,64.7887 189.334,66.1221 188,67.5C 187.333,66.1667 186.667,66.1667 186,67.5C 185.536,66.9056 185.369,66.2389 185.5,65.5C 185.5,64.8333 185.5,64.1667 185.5,63.5C 186.33,53.0079 186.83,42.3412 187,31.5C 187.17,42.3412 187.67,53.0079 188.5,63.5 Z"/></g>
<g><path style="opacity:0.933" fill="#1a353a" d="M 194.5,25.5 C 195.5,25.5 196.5,25.5 197.5,25.5C 197.5,35.8333 197.5,46.1667 197.5,56.5C 197.11,53.2033 196.11,50.2033 194.5,47.5C 194.5,40.1667 194.5,32.8333 194.5,25.5 Z"/></g>
<g><path style="opacity:0.652" fill="#6c8389" d="M 222.5,25.5 C 219.167,25.5 215.833,25.5 212.5,25.5C 212.5,38.8333 212.5,52.1667 212.5,65.5C 215.833,65.5 219.167,65.5 222.5,65.5C 219.038,66.4816 215.371,66.815 211.5,66.5C 211.5,52.5 211.5,38.5 211.5,24.5C 215.366,23.3586 219.033,23.6919 222.5,25.5 Z"/></g>
<g><path style="opacity:0.008" fill="#fefffe" d="M 60.5,34.5 C 61.8333,35.1667 61.8333,35.1667 60.5,34.5 Z"/></g>
<g><path style="opacity:0.02" fill="#c9e2e8" d="M 50.5,33.5 C 48.9095,35.6326 46.9095,37.2993 44.5,38.5C 44.3893,37.8826 44.056,37.3826 43.5,37C 44.6667,36.5 45.5,35.6667 46,34.5C 46.3333,34.8333 46.6667,35.1667 47,35.5C 47.8159,34.1772 48.9826,33.5106 50.5,33.5 Z"/></g>
<g><path style="opacity:0.165" fill="#b9d1d7" d="M 179.5,25.5 C 178.5,25.5 177.5,25.5 176.5,25.5C 176.5,37.1667 176.5,48.8333 176.5,60.5C 176.167,60.5 175.833,60.5 175.5,60.5C 175.5,48.5 175.5,36.5 175.5,24.5C 177.099,24.2322 178.432,24.5655 179.5,25.5 Z"/></g>
<g><path style="opacity:0.956" fill="#1d353c" d="M 222.5,25.5 C 226.158,26.7968 227.824,29.4635 227.5,33.5C 227.5,41.8333 227.5,50.1667 227.5,58.5C 227.5,58.8333 227.5,59.1667 227.5,59.5C 226.365,58.8973 225.365,58.5639 224.5,58.5C 224.5,58.1667 224.5,57.8333 224.5,57.5C 224.5,55.5 224.5,53.5 224.5,51.5C 224.5,45.8333 224.5,40.1667 224.5,34.5C 224.88,32.302 224.213,30.6354 222.5,29.5C 221.508,29.6716 220.842,29.3382 220.5,28.5C 218.735,27.5386 216.735,27.2053 214.5,27.5C 214.5,39.5 214.5,51.5 214.5,63.5C 216.735,63.7947 218.735,63.4614 220.5,62.5C 220.833,62.5 221.167,62.5 221.5,62.5C 223.027,62.427 224.027,63.0937 224.5,64.5C 224.158,65.3382 223.492,65.6716 222.5,65.5C 219.167,65.5 215.833,65.5 212.5,65.5C 212.5,52.1667 212.5,38.8333 212.5,25.5C 215.833,25.5 219.167,25.5 222.5,25.5 Z"/></g>
<g><path style="opacity:0.078" fill="#ccdcde" d="M 222.5,29.5 C 224.213,30.6354 224.88,32.302 224.5,34.5C 223.463,33.0697 222.796,31.403 222.5,29.5 Z"/></g>
<g><path style="opacity:1" fill="#527285" d="M 52.5,38.5 C 51.8333,39.5 51.1667,40.5 50.5,41.5C 49.609,42.1098 48.609,42.4431 47.5,42.5C 48.3619,39.3165 49.5286,36.9832 51,35.5C 51.2321,36.7375 51.7321,37.7375 52.5,38.5 Z"/></g>
<g><path style="opacity:0.012" fill="#fefffe" d="M 54.5,38.5 C 55.8333,39.1667 55.8333,39.1667 54.5,38.5 Z"/></g>
<g><path style="opacity:0.015" fill="#f5fcfe" d="M 227.5,33.5 C 228.267,34.172 228.934,35.0053 229.5,36C 228.848,43.5987 228.182,51.0987 227.5,58.5C 227.5,50.1667 227.5,41.8333 227.5,33.5 Z"/></g>
<g><path style="opacity:0.573" fill="#95a3ab" d="M 43.5,39.5 C 41.8333,41.8333 39.8333,43.8333 37.5,45.5C 38.5,42.5 40.5,40.5 43.5,39.5 Z"/></g>
<g><path style="opacity:1" fill="#627982" d="M 154.5,31.5 C 155.319,34.3054 155.819,37.3054 156,40.5C 156.333,39.5 156.667,38.5 157,37.5C 157.278,38.4158 157.778,39.0825 158.5,39.5C 158.414,40.4959 158.748,41.3292 159.5,42C 157.624,42.9184 156.624,44.4184 156.5,46.5C 155.71,45.3915 155.21,44.0581 155,42.5C 154.329,43.2524 153.496,43.5858 152.5,43.5C 154.343,39.8131 155.01,35.8131 154.5,31.5 Z"/></g>
<g><path style="opacity:0.984" fill="#49616e" d="M 47.5,42.5 C 46.1667,44.1667 44.8333,45.8333 43.5,47.5C 42.5,47.8333 41.8333,48.5 41.5,49.5C 41.1667,49.5 40.8333,49.5 40.5,49.5C 40.3433,48.1266 40.51,46.7932 41,45.5C 41.3333,45.8333 41.6667,46.1667 42,46.5C 43.113,45.2396 43.2797,44.073 42.5,43C 44.299,41.9637 45.9657,41.7971 47.5,42.5 Z"/></g>
<g><path style="opacity:0.008" fill="#f3f2ff" d="M 50.5,41.5 C 51.525,41.8966 51.6917,42.5632 51,43.5C 50.5357,42.9056 50.369,42.2389 50.5,41.5 Z"/></g>
<g><path style="opacity:0.035" fill="#e2e3e2" d="M 83.5,43.5 C 84.8333,44.1667 84.8333,44.1667 83.5,43.5 Z"/></g>
<g><path style="opacity:0.02" fill="#dcfefe" d="M 185.5,28.5 C 185.5,40.1667 185.5,51.8333 185.5,63.5C 185.5,64.1667 185.5,64.8333 185.5,65.5C 184.711,65.2172 184.044,64.7172 183.5,64C 184.833,52.3333 184.833,40.6667 183.5,29C 184.094,28.5357 184.761,28.369 185.5,28.5 Z"/></g>
<g><path style="opacity:0.153" fill="#c4ccd3" d="M 100.5,45.5 C 100.917,44.8761 101.584,44.5427 102.5,44.5C 103.713,44.7472 104.38,45.4138 104.5,46.5C 103.292,45.7659 101.959,45.4326 100.5,45.5 Z"/></g>
<g><path style="opacity:0.031" fill="#dedfde" d="M 84.5,45.5 C 85.8333,46.1667 85.8333,46.1667 84.5,45.5 Z"/></g>
<g><path style="opacity:0.969" fill="#1e3748" d="M 143.5,30.5 C 144.167,30.5 144.833,30.5 145.5,30.5C 145.334,34.8461 145.501,39.1794 146,43.5C 147.943,44.807 149.777,44.807 151.5,43.5C 151.833,43.5 152.167,43.5 152.5,43.5C 153.496,43.5858 154.329,43.2524 155,42.5C 155.21,44.0581 155.71,45.3915 156.5,46.5C 157.338,46.8417 157.672,47.5084 157.5,48.5C 157.586,49.4959 157.252,50.3292 156.5,51C 157.756,51.4169 158.423,52.2502 158.5,53.5C 159.459,56.3077 159.459,59.3077 158.5,62.5C 157.078,63.925 155.411,64.925 153.5,65.5C 150.167,65.5 146.833,65.5 143.5,65.5C 143.5,53.8333 143.5,42.1667 143.5,30.5 Z M 150.5,47.5 C 151.287,49.1042 152.62,49.7709 154.5,49.5C 154.5,49.8333 154.5,50.1667 154.5,50.5C 154.567,51.9587 154.234,53.2921 153.5,54.5C 154.692,55.5659 154.359,56.3992 152.5,57C 153.756,57.4169 154.423,58.2502 154.5,59.5C 154.167,60.1667 153.833,60.8333 153.5,61.5C 150.86,63.0078 148.527,62.6744 146.5,60.5C 146.654,56.3482 146.654,52.0149 146.5,47.5C 147.833,47.5 149.167,47.5 150.5,47.5 Z"/></g>
<g><path style="opacity:0.004" fill="#fefffe" d="M 45.5,46.5 C 46.8333,47.1667 46.8333,47.1667 45.5,46.5 Z"/></g>
<g><path style="opacity:0.059" fill="#dcdded" d="M 43.5,47.5 C 44.8333,48.1667 44.8333,48.1667 43.5,47.5 Z"/></g>
<g><path style="opacity:0.043" fill="#d9e4f0" d="M 35.5,47.5 C 34.4884,48.8717 33.4884,50.205 32.5,51.5C 32.0882,49.0274 33.0882,47.6941 35.5,47.5 Z"/></g>
<g><path style="opacity:0.01" fill="#fefffe" d="M 76.5,48.5 C 77.5735,49.2506 77.7401,50.2506 77,51.5C 76.5172,50.552 76.3505,49.552 76.5,48.5 Z"/></g>
<g><path style="opacity:0.031" fill="#c9d8e5" d="M 150.5,47.5 C 150.833,47.5 151.167,47.5 151.5,47.5C 153.027,47.427 154.027,48.0937 154.5,49.5C 152.62,49.7709 151.287,49.1042 150.5,47.5 Z"/></g>
<g><path style="opacity:0.004" fill="#fefffe" d="M 31.5,51.5 C 30.8333,50.1667 30.8333,50.1667 31.5,51.5 Z"/></g>
<g><path style="opacity:1" fill="#1d3b4f" d="M 50.5,33.5 C 51.1667,33.5 51.8333,33.5 52.5,33.5C 53.562,35.2341 53.562,36.9008 52.5,38.5C 51.7321,37.7375 51.2321,36.7375 51,35.5C 49.5286,36.9832 48.3619,39.3165 47.5,42.5C 45.9657,41.7971 44.299,41.9637 42.5,43C 43.2797,44.073 43.113,45.2396 42,46.5C 41.6667,46.1667 41.3333,45.8333 41,45.5C 40.51,46.7932 40.3433,48.1266 40.5,49.5C 40.5,49.8333 40.5,50.1667 40.5,50.5C 39.8333,50.5 39.5,50.8333 39.5,51.5C 38.8333,51.5 38.5,51.8333 38.5,52.5C 38.5,53.1667 38.1667,53.5 37.5,53.5C 34.6679,56.3779 33.0012,55.7112 32.5,51.5C 33.4884,50.205 34.4884,48.8717 35.5,47.5C 35.5,46.1667 36.1667,45.5 37.5,45.5C 39.8333,43.8333 41.8333,41.8333 43.5,39.5C 43.5,38.8333 43.8333,38.5 44.5,38.5C 46.9095,37.2993 48.9095,35.6326 50.5,33.5 Z"/></g>
<g><path style="opacity:0.011" fill="#f6fff9" d="M 41.5,49.5 C 42.5593,51.0699 42.0593,52.4032 40,53.5C 39.6174,52.944 39.1174,52.6107 38.5,52.5C 38.5,51.8333 38.8333,51.5 39.5,51.5C 40.1667,51.5 40.5,51.1667 40.5,50.5C 41.1667,50.5 41.5,50.1667 41.5,49.5 Z"/></g>
<g><path style="opacity:0.333" fill="#c0cdd1" d="M 100.5,45.5 C 100.125,47.6976 99.4582,49.6976 98.5,51.5C 98.0535,48.9899 98.7202,46.9899 100.5,45.5 Z"/></g>
<g><path style="opacity:0.902" fill="#72818a" d="M 157.5,48.5 C 159.345,49.9955 159.678,51.6621 158.5,53.5C 158.423,52.2502 157.756,51.4169 156.5,51C 157.252,50.3292 157.586,49.4959 157.5,48.5 Z"/></g>
<g><path style="opacity:1" fill="#3d5560" d="M 100.5,45.5 C 101.959,45.4326 103.292,45.7659 104.5,46.5C 105.043,46.56 105.376,46.8933 105.5,47.5C 104.341,52.4689 103.341,57.4689 102.5,62.5C 101.911,65.7337 99.9114,67.067 96.5,66.5C 95.3586,64.4513 95.3586,62.4513 96.5,60.5C 97.4345,59.4324 97.7678,58.099 97.5,56.5C 97.5,56.1667 97.5,55.8333 97.5,55.5C 98.404,54.791 98.7373,53.791 98.5,52.5C 98.5,52.1667 98.5,51.8333 98.5,51.5C 99.4582,49.6976 100.125,47.6976 100.5,45.5 Z"/></g>
<g><path style="opacity:0.006" fill="#f8fcfc" d="M 224.5,51.5 C 224.5,53.5 224.5,55.5 224.5,57.5C 223.761,57.631 223.094,57.4643 222.5,57C 223.109,55.0517 223.776,53.2184 224.5,51.5 Z"/></g>
<g><path style="opacity:0.01" fill="#f3fcff" d="M 63.5,53.5 C 62.5,53.5 61.5,53.5 60.5,53.5C 59.537,52.6365 59.537,51.9698 60.5,51.5C 61.7321,52.1445 63.0654,52.3112 64.5,52C 63.944,52.3826 63.6107,52.8826 63.5,53.5 Z"/></g>
<g><path style="opacity:0.395" fill="#9caab1" d="M 153.5,25.5 C 150.167,25.5 146.833,25.5 143.5,25.5C 143.5,27.1667 143.5,28.8333 143.5,30.5C 143.5,42.1667 143.5,53.8333 143.5,65.5C 146.833,65.5 150.167,65.5 153.5,65.5C 150.103,66.1982 146.603,66.8648 143,67.5C 142.167,53.1551 142.334,38.8217 143.5,24.5C 145.725,23.8995 147.891,23.5661 150,23.5C 151.302,24.0848 152.469,24.7515 153.5,25.5 Z"/></g>
<g><path style="opacity:0.004" fill="#f4fffe" d="M 57.5,52.5 C 58.525,52.8966 58.6917,53.5632 58,54.5C 57.5357,53.9056 57.369,53.2389 57.5,52.5 Z"/></g>
<g><path style="opacity:0.004" fill="#fefffe" d="M 86.5,53.5 C 87.8333,54.1667 87.8333,54.1667 86.5,53.5 Z"/></g>
<g><path style="opacity:1" fill="#4b5b66" d="M 60.5,53.5 C 61.5,53.5 62.5,53.5 63.5,53.5C 64.6366,54.7888 65.9699,55.7888 67.5,56.5C 67.5,57.1667 67.5,57.8333 67.5,58.5C 66.603,57.4019 65.7697,57.4019 65,58.5C 64.6667,57.8333 64.3333,57.1667 64,56.5C 63.2086,57.745 62.7086,59.0783 62.5,60.5C 61.1689,59.0121 59.8355,58.3455 58.5,58.5C 59.0276,56.6639 59.6942,54.9972 60.5,53.5 Z"/></g>
<g><path style="opacity:0.306" fill="#ccd8dc" d="M 98.5,52.5 C 98.7373,53.791 98.404,54.791 97.5,55.5C 97.1667,55.5 96.8333,55.5 96.5,55.5C 96.9321,54.2905 97.5987,53.2905 98.5,52.5 Z"/></g>
<g><path style="opacity:0.051" fill="#d7ebea" d="M 68.5,56.5 C 67.8333,55.1667 67.8333,55.1667 68.5,56.5 Z"/></g>
<g><path style="opacity:0.009" fill="#e8edf0" d="M 96.5,55.5 C 96.5,56.1667 96.8333,56.5 97.5,56.5C 97.7678,58.099 97.4345,59.4324 96.5,60.5C 95.2801,58.7163 95.2801,57.0496 96.5,55.5 Z"/></g>
<g><path style="opacity:0.008" fill="#fefffe" d="M 191.5,55.5 C 192.833,56.1667 192.833,56.1667 191.5,55.5 Z"/></g>
<g><path style="opacity:0.031" fill="#defffe" d="M 36.5,56.5 C 37.8333,57.1667 37.8333,57.1667 36.5,56.5 Z"/></g>
<g><path style="opacity:0.027" fill="#dadbfe" d="M 68.5,56.5 C 69.1667,56.5 69.5,56.8333 69.5,57.5C 69.1667,57.1667 68.8333,56.8333 68.5,56.5 Z"/></g>
<g><path style="opacity:0.009" fill="#e2edf8" d="M 154.5,50.5 C 155.833,53.5 155.833,56.5 154.5,59.5C 154.423,58.2502 153.756,57.4169 152.5,57C 154.359,56.3992 154.692,55.5659 153.5,54.5C 154.234,53.2921 154.567,51.9587 154.5,50.5 Z"/></g>
<g><path style="opacity:0.004" fill="#fefffe" d="M 182.5,56.5 C 183.833,57.1667 183.833,57.1667 182.5,56.5 Z"/></g>
<g><path style="opacity:0.212" fill="#a8b4bb" d="M 194.5,64.5 C 198.683,65.8111 203.016,65.8111 207.5,64.5C 204.232,63.513 200.898,63.1796 197.5,63.5C 197.5,61.1667 197.5,58.8333 197.5,56.5C 197.5,46.1667 197.5,35.8333 197.5,25.5C 196.5,25.5 195.5,25.5 194.5,25.5C 194.369,24.7611 194.536,24.0944 195,23.5C 196.011,24.3366 197.178,24.67 198.5,24.5C 198.611,37.0064 198.611,49.6731 198.5,62.5C 201.777,62.7839 204.943,62.4505 208,61.5C 208.273,63.1012 208.773,64.6012 209.5,66C 204.136,66.8295 198.802,66.6628 193.5,65.5C 193.624,64.8933 193.957,64.56 194.5,64.5 Z"/></g>
<g><path style="opacity:1" fill="#4d6475" d="M 31.5,51.5 C 31.8333,51.5 32.1667,51.5 32.5,51.5C 33.0012,55.7112 34.6679,56.3779 37.5,53.5C 37.4431,54.609 37.1098,55.609 36.5,56.5C 35.5573,57.8831 34.5573,59.2164 33.5,60.5C 32.8333,61.5 32.1667,62.5 31.5,63.5C 31.6602,61.8008 31.4935,60.1341 31,58.5C 29.8552,58.6191 28.6885,58.9524 27.5,59.5C 27.3893,58.8826 27.056,58.3826 26.5,58C 28.5274,56.1125 30.194,53.9458 31.5,51.5 Z"/></g>
<g><path style="opacity:0.004" fill="#fefffe" d="M 69.5,57.5 C 70.8333,58.1667 70.8333,58.1667 69.5,57.5 Z"/></g>
<g><path style="opacity:0.012" fill="#fefffe" d="M 113.5,58.5 C 114.833,59.1667 114.833,59.1667 113.5,58.5 Z"/></g>
<g><path style="opacity:0.012" fill="#d4dee1" d="M 27.5,59.5 C 27.6716,60.4916 27.3382,61.1583 26.5,61.5C 24.9689,60.0755 25.3023,59.4088 27.5,59.5 Z"/></g>
<g><path style="opacity:1" fill="#425763" d="M 86.5,54.5 C 85.9602,57.4309 86.2935,60.4309 87.5,63.5C 85.7685,67.2033 83.7685,67.37 81.5,64C 79.841,58.3665 78.5077,52.6998 77.5,47C 78.6278,44.9348 80.2945,44.2681 82.5,45C 83.5275,48.4363 84.8608,51.603 86.5,54.5 Z"/></g>
<g><path style="opacity:0.031" fill="#dedffe" d="M 168.5,59.5 C 169.833,60.1667 169.833,60.1667 168.5,59.5 Z"/></g>
<g><path style="opacity:0.016" fill="#f6f6f6" d="M 170.5,60.5 C 170.897,59.475 171.563,59.3083 172.5,60C 171.906,60.4643 171.239,60.631 170.5,60.5 Z"/></g>
<g><path style="opacity:0.031" fill="#dedffe" d="M 173.5,59.5 C 174.833,60.1667 174.833,60.1667 173.5,59.5 Z"/></g>
<g><path style="opacity:0.02" fill="#fefffe" d="M 33.5,60.5 C 34.8333,61.1667 34.8333,61.1667 33.5,60.5 Z"/></g>
<g><path style="opacity:0.012" fill="#fefffe" d="M 59.5,60.5 C 60.8333,61.1667 60.8333,61.1667 59.5,60.5 Z"/></g>
<g><path style="opacity:0.988" fill="#53696f" d="M 224.5,58.5 C 225.365,58.5639 226.365,58.8973 227.5,59.5C 227.727,61.9328 226.727,63.5994 224.5,64.5C 224.027,63.0937 223.027,62.427 221.5,62.5C 221.577,61.2502 222.244,60.4169 223.5,60C 222.288,58.8932 222.621,58.3932 224.5,58.5 Z"/></g>
<g><path style="opacity:0.004" fill="#fefffe" d="M 228.5,60.5 C 229.525,60.8966 229.692,61.5632 229,62.5C 228.536,61.9056 228.369,61.2389 228.5,60.5 Z"/></g>
<g><path style="opacity:0.022" fill="#dfe4e5" d="M 62.5,60.5 C 63.3382,60.8417 63.6716,61.5084 63.5,62.5C 61.3023,62.5912 60.9689,61.9245 62.5,60.5 Z"/></g>
<g><path style="opacity:0.051" fill="#eaebea" d="M 113.5,62.5 C 112.833,61.1667 112.833,61.1667 113.5,62.5 Z"/></g>
<g><path style="opacity:0.008" fill="#f6fbf6" d="M 117.5,62.5 C 118.363,61.537 119.03,61.537 119.5,62.5C 118.743,63.7733 118.077,63.7733 117.5,62.5 Z"/></g>
<g><path style="opacity:0.031" fill="#e0fffe" d="M 161.5,60.5 C 162.525,60.8966 162.692,61.5632 162,62.5C 161.536,61.9056 161.369,61.2389 161.5,60.5 Z"/></g>
<g><path style="opacity:0.341" fill="#c4d7db" d="M 26.5,61.5 C 26.3404,63.153 25.6737,64.4863 24.5,65.5C 24.2291,63.6203 24.8958,62.287 26.5,61.5 Z"/></g>
<g><path style="opacity:0.01" fill="#fefffe" d="M 102.5,62.5 C 103.525,62.8966 103.692,63.5632 103,64.5C 102.536,63.9056 102.369,63.2389 102.5,62.5 Z"/></g>
<g><path style="opacity:0.659" fill="#7b8e94" d="M 151.5,47.5 C 151.167,47.5 150.833,47.5 150.5,47.5C 149.167,47.5 147.833,47.5 146.5,47.5C 146.654,52.0149 146.654,56.3482 146.5,60.5C 148.527,62.6744 150.86,63.0078 153.5,61.5C 151.285,63.5737 148.785,63.9071 146,62.5C 145.501,57.1771 145.334,51.8437 145.5,46.5C 147.735,46.2053 149.735,46.5386 151.5,47.5 Z"/></g>
<g><path style="opacity:0.008" fill="#fefffe" d="M 180.5,62.5 C 181.833,63.1667 181.833,63.1667 180.5,62.5 Z"/></g>
<g><path style="opacity:0.004" fill="#e6f6f9" d="M 63.5,62.5 C 64.5,62.8333 65.1667,63.5 65.5,64.5C 64.1667,64.5 63.5,63.8333 63.5,62.5 Z"/></g>
<g><path style="opacity:0.02" fill="#fefffe" d="M 111.5,64.5 C 110.833,63.1667 110.833,63.1667 111.5,64.5 Z"/></g>
<g><path style="opacity:0.008" fill="#f3f2ff" d="M 158.5,62.5 C 159.525,62.8966 159.692,63.5632 159,64.5C 158.536,63.9056 158.369,63.2389 158.5,62.5 Z"/></g>
<g><path style="opacity:0.714" fill="#909da2" d="M 164.5,64.5 C 164.5,64.1667 164.5,63.8333 164.5,63.5C 166.404,63.7376 167.738,64.7376 168.5,66.5C 167.833,66.5 167.167,66.5 166.5,66.5C 166.167,65.5 165.5,64.8333 164.5,64.5 Z"/></g>
<g><path style="opacity:1" fill="#394e58" d="M 67.5,58.5 C 69.4846,58.8586 70.1513,59.692 69.5,61C 70.7158,62.7398 72.3825,63.7398 74.5,64C 73.8333,64.3333 73.1667,64.6667 72.5,65C 74.229,66.7889 74.8957,68.9556 74.5,71.5C 71.6016,72.7194 69.6016,71.7194 68.5,68.5C 67.4884,67.1283 66.4884,65.795 65.5,64.5C 65.1667,63.5 64.5,62.8333 63.5,62.5C 63.6716,61.5084 63.3382,60.8417 62.5,60.5C 62.7086,59.0783 63.2086,57.745 64,56.5C 64.3333,57.1667 64.6667,57.8333 65,58.5C 65.7697,57.4019 66.603,57.4019 67.5,58.5 Z"/></g>
<g><path style="opacity:0.027" fill="#dadbfe" d="M 164.5,64.5 C 163.833,65.1667 163.833,65.1667 164.5,64.5 Z"/></g>
<g><path style="opacity:0.063" fill="#dedfde" d="M 178.5,64.5 C 179.833,65.1667 179.833,65.1667 178.5,64.5 Z"/></g>
<g><path style="opacity:1" fill="#1c3440" d="M 194.5,47.5 C 196.11,50.2033 197.11,53.2033 197.5,56.5C 197.5,58.8333 197.5,61.1667 197.5,63.5C 200.898,63.1796 204.232,63.513 207.5,64.5C 203.016,65.8111 198.683,65.8111 194.5,64.5C 194.383,59.0441 194.383,53.3774 194.5,47.5 Z"/></g>
<g><path style="opacity:0.008" fill="#fefffe" d="M 226.5,64.5 C 227.833,65.1667 227.833,65.1667 226.5,64.5 Z"/></g>
<g><path style="opacity:1" fill="#809299" d="M 31.5,63.5 C 30.6371,64.9403 30.6371,66.2736 31.5,67.5C 31.1543,68.6956 30.6543,68.6956 30,67.5C 29.5357,68.0944 29.369,68.7611 29.5,69.5C 29.1667,69.5 28.8333,69.5 28.5,69.5C 28.087,66.6798 29.087,64.6798 31.5,63.5 Z"/></g>
<g><path style="opacity:0.009" fill="#dbe1e5" d="M 110.5,66.5 C 109.699,68.0418 109.366,69.7085 109.5,71.5C 108.378,69.7116 108.211,67.7116 109,65.5C 109.383,66.056 109.883,66.3893 110.5,66.5 Z"/></g>
<g><path style="opacity:0.114" fill="#d2dcdb" d="M 117.5,65.5 C 118.833,66.1667 118.833,66.1667 117.5,65.5 Z"/></g>
<g><path style="opacity:0.043" fill="#e7e8e7" d="M 177.5,65.5 C 177.833,65.5 178.167,65.5 178.5,65.5C 178.315,66.1701 177.981,66.1701 177.5,65.5 Z"/></g>
<g><path style="opacity:0.008" fill="#fefffe" d="M 75.5,66.5 C 76.8333,67.1667 76.8333,67.1667 75.5,66.5 Z"/></g>
<g><path style="opacity:0.004" fill="#fefffe" d="M 81.5,66.5 C 82.8333,67.1667 82.8333,67.1667 81.5,66.5 Z"/></g>
<g><path style="opacity:0.012" fill="#fefffe" d="M 86.5,66.5 C 87.8333,67.1667 87.8333,67.1667 86.5,66.5 Z"/></g>
<g><path style="opacity:0.039" fill="#e5e6e5" d="M 96.5,66.5 C 95.8333,67.1667 95.8333,67.1667 96.5,66.5 Z"/></g>
<g><path style="opacity:0.004" fill="#f1fffe" d="M 166.5,66.5 C 166.5,66.8333 166.5,67.1667 166.5,67.5C 163.833,67.1667 163.833,66.8333 166.5,66.5 Z"/></g>
<g><path style="opacity:0.027" fill="#daffda" d="M 183.5,66.5 C 184.833,67.1667 184.833,67.1667 183.5,66.5 Z"/></g>
<g><path style="opacity:0.008" fill="#eff5f7" d="M 65.5,64.5 C 66.4884,65.795 67.4884,67.1283 68.5,68.5C 67.6618,68.8417 67.3284,69.5084 67.5,70.5C 66.7109,70.2172 66.0442,69.7172 65.5,69C 65.2642,67.5491 65.2642,66.0491 65.5,64.5 Z"/></g>
<g><path style="opacity:1" fill="#31424e" d="M 117.5,62.5 C 117.418,67.9144 114.751,71.2478 109.5,72.5C 109.5,72.1667 109.5,71.8333 109.5,71.5C 109.366,69.7085 109.699,68.0418 110.5,66.5C 110.833,65.8333 111.167,65.1667 111.5,64.5C 112.5,64.1667 113.167,63.5 113.5,62.5C 115.109,58.8316 116.443,58.8316 117.5,62.5 Z"/></g>
<g><path style="opacity:0.075" fill="#e3e4d6" d="M 152.5,67.5 C 153.833,68.1667 153.833,68.1667 152.5,67.5 Z"/></g>
<g><path style="opacity:0.067" fill="#e0e1e0" d="M 166.5,67.5 C 167.833,68.1667 167.833,68.1667 166.5,67.5 Z"/></g>
<g><path style="opacity:0.067" fill="#d1e1e0" d="M 175.5,67.5 C 176.833,68.1667 176.833,68.1667 175.5,67.5 Z"/></g>
<g><path style="opacity:0.012" fill="#fefffe" d="M 213.5,67.5 C 214.833,68.1667 214.833,68.1667 213.5,67.5 Z"/></g>
<g><path style="opacity:0.071" fill="#ecf5f5" d="M 43.5,69.5 C 43.8966,68.475 44.5632,68.3083 45.5,69C 44.9056,69.4643 44.2389,69.631 43.5,69.5 Z"/></g>
<g><path style="opacity:0.047" fill="#e9eae9" d="M 87.5,69.5 C 86.8333,68.1667 86.8333,68.1667 87.5,69.5 Z"/></g>
<g><path style="opacity:0.004" fill="#fefffe" d="M 185.5,68.5 C 186.833,69.1667 186.833,69.1667 185.5,68.5 Z"/></g>
<g><path style="opacity:1" fill="#274555" d="M 31.5,63.5 C 29.087,64.6798 28.087,66.6798 28.5,69.5C 28.4828,71.5648 28.1495,73.5648 27.5,75.5C 26.8333,75.5 26.5,75.8333 26.5,76.5C 25.5489,77.9187 25.2155,79.5853 25.5,81.5C 25.7845,83.4147 25.4511,85.0813 24.5,86.5C 24.6567,85.1266 24.49,83.7932 24,82.5C 23.6667,83.1667 23.3333,83.8333 23,84.5C 22.8113,89.2508 22.1447,93.9174 21,98.5C 20.8227,94.6437 20.3227,90.977 19.5,87.5C 19.8333,84.8333 20.1667,82.1667 20.5,79.5C 20.5172,77.4352 20.8505,75.4352 21.5,73.5C 22.9313,72.2196 23.5979,70.5529 23.5,68.5C 23.5569,67.391 23.8902,66.391 24.5,65.5C 25.6737,64.4863 26.3404,63.153 26.5,61.5C 27.3382,61.1583 27.6716,60.4916 27.5,59.5C 28.6885,58.9524 29.8552,58.6191 31,58.5C 31.4935,60.1341 31.6602,61.8008 31.5,63.5 Z"/></g>
<g><path style="opacity:0.008" fill="#fefffe" d="M 29.5,69.5 C 30.8333,70.1667 30.8333,70.1667 29.5,69.5 Z"/></g>
<g><path style="opacity:0.443" fill="#c3cfd3" d="M 50.5,70.5 C 49.1667,70.5 47.8333,70.5 46.5,70.5C 47.1494,69.3937 47.4827,68.3937 47.5,67.5C 48.548,68.548 49.548,69.548 50.5,70.5 Z"/></g>
<g><path style="opacity:0.012" fill="#fefffe" d="M 75.5,69.5 C 76.8333,70.1667 76.8333,70.1667 75.5,69.5 Z"/></g>
<g><path style="opacity:0.012" fill="#fefffe" d="M 80.5,69.5 C 81.8333,70.1667 81.8333,70.1667 80.5,69.5 Z"/></g>
<g><path style="opacity:0.012" fill="#fefffe" d="M 116.5,69.5 C 117.833,70.1667 117.833,70.1667 116.5,69.5 Z"/></g>
<g><path style="opacity:0.008" fill="#d8e0e4" d="M 23.5,68.5 C 23.5979,70.5529 22.9313,72.2196 21.5,73.5C 21.4021,71.4471 22.0687,69.7804 23.5,68.5 Z"/></g>
<g><path style="opacity:0.004" fill="#fefffe" d="M 67.5,70.5 C 68.8333,71.1667 68.8333,71.1667 67.5,70.5 Z"/></g>
<g><path style="opacity:0.004" fill="#fefffe" d="M 153.5,70.5 C 154.833,71.1667 154.833,71.1667 153.5,70.5 Z"/></g>
<g><path style="opacity:0.004" fill="#fefffe" d="M 166.5,70.5 C 167.833,71.1667 167.833,71.1667 166.5,70.5 Z"/></g>
<g><path style="opacity:0.09" fill="#dddee8" d="M 74.5,71.5 C 75.8333,72.1667 75.8333,72.1667 74.5,71.5 Z"/></g>
<g><path style="opacity:0.004" fill="#fefffe" d="M 104.5,71.5 C 105.833,72.1667 105.833,72.1667 104.5,71.5 Z"/></g>
<g><path style="opacity:0.02" fill="#ddfffe" d="M 116.5,70.5 C 116.631,71.2389 116.464,71.9056 116,72.5C 115.308,71.5632 115.475,70.8966 116.5,70.5 Z"/></g>
<g><path style="opacity:0.004" fill="#fefffe" d="M 184.5,72.5 C 183.833,71.1667 183.833,71.1667 184.5,72.5 Z"/></g>
<g><path style="opacity:0.02" fill="#cbfffe" d="M 224.5,71.5 C 225.833,72.1667 225.833,72.1667 224.5,71.5 Z"/></g>
<g><path style="opacity:0.008" fill="#fefffe" d="M 238.5,73.5 C 238.369,72.7611 238.536,72.0944 239,71.5C 239.692,72.4368 239.525,73.1034 238.5,73.5 Z"/></g>
<g><path style="opacity:0.004" fill="#fefffe" d="M 43.5,72.5 C 44.8333,73.1667 44.8333,73.1667 43.5,72.5 Z"/></g>
<g><path style="opacity:0.01" fill="#fefffe" d="M 74.5,72.5 C 74.631,73.2389 74.4643,73.9056 74,74.5C 73.3083,73.5632 73.475,72.8966 74.5,72.5 Z"/></g>
<g><path style="opacity:1" fill="#34525f" d="M 87.5,69.5 C 91.7047,69.1906 95.7047,69.8572 99.5,71.5C 99.33,72.8221 99.6634,73.9887 100.5,75C 106.264,75.8454 106.597,77.0121 101.5,78.5C 101.027,77.0937 100.027,76.427 98.5,76.5C 95.8067,76.4285 93.1401,76.0951 90.5,75.5C 88.2014,75.5992 86.2014,76.2658 84.5,77.5C 83.1667,77.8333 81.8333,78.1667 80.5,78.5C 77.3489,78.3859 76.3489,77.0526 77.5,74.5C 80.4596,72.0701 83.7929,70.4034 87.5,69.5 Z"/></g>
<g><path style="opacity:0.043" fill="#d0e8e7" d="M 109.5,72.5 C 108.833,73.1667 108.833,73.1667 109.5,72.5 Z"/></g>
<g><path style="opacity:0.086" fill="#e7e8db" d="M 145.5,73.5 C 144.833,72.1667 144.833,72.1667 145.5,73.5 Z"/></g>
<g><path style="opacity:0.671" fill="#93a6b1" d="M 154.5,73.5 C 152.167,73.5 149.833,73.5 147.5,73.5C 146.537,72.6365 146.537,71.9698 147.5,71.5C 150.063,71.0024 152.397,71.6691 154.5,73.5 Z"/></g>
<g><path style="opacity:0.008" fill="#fefffe" d="M 157.5,72.5 C 158.833,73.1667 158.833,73.1667 157.5,72.5 Z"/></g>
<g><path style="opacity:0.071" fill="#d4e3e2" d="M 176.5,72.5 C 177.833,73.1667 177.833,73.1667 176.5,72.5 Z"/></g>
<g><path style="opacity:0.059" fill="#dff0f4" d="M 198.5,73.5 C 193.833,73.5 189.167,73.5 184.5,73.5C 184.5,73.1667 184.5,72.8333 184.5,72.5C 187.119,72.7683 189.619,72.435 192,71.5C 194.277,72.1172 196.444,72.7839 198.5,73.5 Z"/></g>
<g><path style="opacity:0.031" fill="#dedfde" d="M 226.5,72.5 C 227.833,73.1667 227.833,73.1667 226.5,72.5 Z"/></g>
<g><path style="opacity:0.012" fill="#fefffe" d="M 71.5,73.5 C 72.8333,74.1667 72.8333,74.1667 71.5,73.5 Z"/></g>
<g><path style="opacity:0.012" fill="#fefffe" d="M 108.5,73.5 C 107.833,74.1667 107.833,74.1667 108.5,73.5 Z"/></g>
<g><path style="opacity:0.014" fill="#fefffe" d="M 110.5,76.5 C 109.475,76.1034 109.308,75.4368 110,74.5C 110.464,75.0944 110.631,75.7611 110.5,76.5 Z"/></g>
<g><path style="opacity:0.012" fill="#fefffe" d="M 199.5,74.5 C 200.833,75.1667 200.833,75.1667 199.5,74.5 Z"/></g>
<g><path style="opacity:0.031" fill="#e6f7fb" d="M 237.5,73.5 C 237.833,73.5 238.167,73.5 238.5,73.5C 238.357,75.2624 238.691,76.9291 239.5,78.5C 239.043,79.2975 238.376,79.6309 237.5,79.5C 237.5,77.5 237.5,75.5 237.5,73.5 Z"/></g>
<g><path style="opacity:0.016" fill="#fefffe" d="M 44.5,75.5 C 45.8333,76.1667 45.8333,76.1667 44.5,75.5 Z"/></g>
<g><path style="opacity:0.027" fill="#c3d8dc" d="M 46.5,74.5 C 48.153,74.6596 49.4863,75.3263 50.5,76.5C 48.6203,76.7709 47.287,76.1042 46.5,74.5 Z"/></g>
<g><path style="opacity:0.051" fill="#d7ebea" d="M 161.5,75.5 C 162.833,76.1667 162.833,76.1667 161.5,75.5 Z"/></g>
<g><path style="opacity:0.016" fill="#fefffe" d="M 178.5,75.5 C 179.833,76.1667 179.833,76.1667 178.5,75.5 Z"/></g>
<g><path style="opacity:0.027" fill="#fffee7" d="M 27.5,75.5 C 28.525,75.8966 28.6917,76.5632 28,77.5C 27.5357,76.9056 27.369,76.2389 27.5,75.5 Z"/></g>
<g><path style="opacity:0.004" fill="#fefffe" d="M 110.5,76.5 C 111.833,77.1667 111.833,77.1667 110.5,76.5 Z"/></g>
<g><path style="opacity:0.004" fill="#fefffe" d="M 159.5,76.5 C 160.833,77.1667 160.833,77.1667 159.5,76.5 Z"/></g>
<g><path style="opacity:0.986" fill="#2a454f" d="M 224.5,73.5 C 225.338,73.8417 225.672,74.5084 225.5,75.5C 225.263,76.791 225.596,77.791 226.5,78.5C 226.5,78.8333 226.5,79.1667 226.5,79.5C 226.796,81.403 227.463,83.0697 228.5,84.5C 228.5,85.1667 228.833,85.5 229.5,85.5C 229.5,86.5 229.5,87.5 229.5,88.5C 229.796,90.403 230.463,92.0697 231.5,93.5C 231.5,94.1667 231.5,94.8333 231.5,95.5C 231.328,96.4916 231.662,97.1583 232.5,97.5C 232.263,98.791 232.596,99.791 233.5,100.5C 233.5,101.167 233.833,101.5 234.5,101.5C 235.985,105.056 235.652,108.389 233.5,111.5C 232.833,110.5 232.167,109.5 231.5,108.5C 230.468,104.537 229.468,100.203 228.5,95.5C 228.204,93.597 227.537,91.9303 226.5,90.5C 226.5,90.1667 226.5,89.8333 226.5,89.5C 226.672,88.5084 226.338,87.8417 225.5,87.5C 225.5,87.1667 225.5,86.8333 225.5,86.5C 225.771,84.6203 225.104,83.287 223.5,82.5C 222.272,80.9902 222.272,79.4902 223.5,78C 222.906,77.5357 222.239,77.369 221.5,77.5C 221.5,76.1667 221.5,74.8333 221.5,73.5C 222.5,73.5 223.5,73.5 224.5,73.5 Z"/></g>
<g><path style="opacity:0.086" fill="#c3d5e3" d="M 225.5,75.5 C 226.492,75.3284 227.158,75.6618 227.5,76.5C 226.662,76.8417 226.328,77.5084 226.5,78.5C 225.596,77.791 225.263,76.791 225.5,75.5 Z"/></g>
<g><path style="opacity:0.027" fill="#fefffe" d="M 227.5,76.5 C 228.833,77.1667 228.833,77.1667 227.5,76.5 Z"/></g>
<g><path style="opacity:0.012" fill="#fefffe" d="M 48.5,77.5 C 49.8333,78.1667 49.8333,78.1667 48.5,77.5 Z"/></g>
<g><path style="opacity:0.051" fill="#c0d6e0" d="M 50.5,76.5 C 52.8185,76.9925 54.8185,77.9925 56.5,79.5C 54.7839,79.3713 53.1172,79.038 51.5,78.5C 51.1667,77.8333 50.8333,77.1667 50.5,76.5 Z"/></g>
<g><path style="opacity:1" fill="#2d4454" d="M 46.5,70.5 C 47.8333,70.5 49.1667,70.5 50.5,70.5C 52.0174,70.5106 53.1841,71.1772 54,72.5C 54.3333,72.1667 54.6667,71.8333 55,71.5C 57.4905,72.9897 59.9905,74.6564 62.5,76.5C 64.8037,78.8359 64.1371,80.5026 60.5,81.5C 58.847,81.3404 57.5137,80.6737 56.5,79.5C 54.8185,77.9925 52.8185,76.9925 50.5,76.5C 49.4863,75.3263 48.153,74.6596 46.5,74.5C 45.1667,73.1667 45.1667,71.8333 46.5,70.5 Z"/></g>
<g><path style="opacity:0.016" fill="#fefffe" d="M 84.5,77.5 C 85.8333,78.1667 85.8333,78.1667 84.5,77.5 Z"/></g>
<g><path style="opacity:0.196" fill="#a9c6d3" d="M 98.5,76.5 C 100.027,76.427 101.027,77.0937 101.5,78.5C 99.9731,78.573 98.9731,77.9063 98.5,76.5 Z"/></g>
<g><path style="opacity:1" fill="#3d5565" d="M 99.5,71.5 C 101.593,72.0447 103.593,72.878 105.5,74C 107.871,76.706 110.537,79.0394 113.5,81C 113.034,82.2988 113.034,83.7988 113.5,85.5C 111.992,87.1815 110.992,89.1815 110.5,91.5C 109.101,88.3707 107.435,85.3707 105.5,82.5C 104.473,80.8058 103.139,79.4725 101.5,78.5C 106.597,77.0121 106.264,75.8454 100.5,75C 99.6634,73.9887 99.33,72.8221 99.5,71.5 Z"/></g>
<g><path style="opacity:0.012" fill="#fefffe" d="M 180.5,77.5 C 181.833,78.1667 181.833,78.1667 180.5,77.5 Z"/></g>
<g><path style="opacity:0.004" fill="#fefffe" d="M 51.5,78.5 C 50.8333,79.1667 50.8333,79.1667 51.5,78.5 Z"/></g>
<g><path style="opacity:1" fill="#3e555e" d="M 145.5,73.5 C 146.167,73.5 146.833,73.5 147.5,73.5C 149.833,73.5 152.167,73.5 154.5,73.5C 156.867,74.8708 158.533,76.8708 159.5,79.5C 159.629,81.7818 159.296,83.7818 158.5,85.5C 157.5,85.5 156.5,85.5 155.5,85.5C 155.802,82.9407 155.468,80.6074 154.5,78.5C 154.167,78.5 153.833,78.5 153.5,78.5C 152.597,76.3796 151.263,76.0462 149.5,77.5C 149.167,76.1667 148.833,76.1667 148.5,77.5C 147.833,78.1667 147.167,78.8333 146.5,79.5C 146.167,79.5 145.833,79.5 145.5,79.5C 143.525,89.4459 142.858,99.7792 143.5,110.5C 142.784,108.444 142.117,106.277 141.5,104C 142.319,94.911 142.819,85.7444 143,76.5C 144.045,75.6266 144.878,74.6266 145.5,73.5 Z"/></g>
<g><path style="opacity:0.008" fill="#fefffe" d="M 148.5,77.5 C 148.833,77.5 149.167,77.5 149.5,77.5C 149.315,78.1701 148.981,78.1701 148.5,77.5 Z"/></g>
<g><path style="opacity:0.004" fill="#fefffe" d="M 153.5,78.5 C 152.833,79.1667 152.833,79.1667 153.5,78.5 Z"/></g>
<g><path style="opacity:0.024" fill="#d4fffe" d="M 191.5,78.5 C 192.833,79.1667 192.833,79.1667 191.5,78.5 Z"/></g>
<g><path style="opacity:0.035" fill="#e2ffe2" d="M 218.5,78.5 C 219.833,79.1667 219.833,79.1667 218.5,78.5 Z"/></g>
<g><path style="opacity:0.004" fill="#fefffe" d="M 228.5,78.5 C 229.833,79.1667 229.833,79.1667 228.5,78.5 Z"/></g>
<g><path style="opacity:0.006" fill="#e9f5f9" d="M 20.5,79.5 C 20.1667,82.1667 19.8333,84.8333 19.5,87.5C 19.5,91.1667 19.5,94.8333 19.5,98.5C 18.8351,95.5185 18.5018,92.3518 18.5,89C 18.5152,85.4242 19.1818,82.2575 20.5,79.5 Z"/></g>
<g><path style="opacity:0.039" fill="#d8ebee" d="M 26.5,76.5 C 26.33,77.8221 26.6634,78.9887 27.5,80C 26.9558,80.7172 26.2891,81.2172 25.5,81.5C 25.2155,79.5853 25.5489,77.9187 26.5,76.5 Z"/></g>
<g><path style="opacity:0.987" fill="#4b636f" d="M 77.5,74.5 C 76.3489,77.0526 77.3489,78.3859 80.5,78.5C 78.8173,79.8534 77.4839,81.5201 76.5,83.5C 75.8333,83.8333 75.1667,84.1667 74.5,84.5C 73.9686,80.2509 72.3019,79.5842 69.5,82.5C 69.6243,81.8032 69.6243,80.9699 69.5,80C 72.0652,77.9205 74.7318,76.0872 77.5,74.5 Z"/></g>
<g><path style="opacity:0.497" fill="#9bb7bc" d="M 195.5,76.5 C 193.393,77.4682 191.059,77.8016 188.5,77.5C 188.629,81.8784 188.629,86.0451 188.5,90C 190.833,91.043 193.166,91.8763 195.5,92.5C 192.833,92.5 190.167,92.5 187.5,92.5C 187.5,87.1667 187.5,81.8333 187.5,76.5C 190.167,76.5 192.833,76.5 195.5,76.5 Z"/></g>
<g><path style="opacity:0.014" fill="#eff7fa" d="M 234.5,77.5 C 234.5,84.8333 234.5,92.1667 234.5,99.5C 233.833,99.5 233.5,99.8333 233.5,100.5C 232.596,99.791 232.263,98.791 232.5,97.5C 231.662,97.1583 231.328,96.4916 231.5,95.5C 233.147,89.7355 234.147,83.7355 234.5,77.5 Z"/></g>
<g><path style="opacity:1" fill="#727f80" d="M 62.5,76.5 C 63.4959,76.4142 64.3292,76.7476 65,77.5C 65.4901,79.5454 65.3235,81.5454 64.5,83.5C 63.2921,82.7659 61.9587,82.4326 60.5,82.5C 60.5,82.1667 60.5,81.8333 60.5,81.5C 64.1371,80.5026 64.8037,78.8359 62.5,76.5 Z"/></g>
<g><path style="opacity:0.979" fill="#0c2c3a" d="M 125.5,22.5 C 126.498,46.6609 126.831,70.9943 126.5,95.5C 126.333,118.169 126.5,140.836 127,163.5C 128.489,140.984 128.989,118.317 128.5,95.5C 128.333,71.1644 128.5,46.8311 129,22.5C 129.5,69.8322 129.667,117.165 129.5,164.5C 128.167,165.833 126.833,165.833 125.5,164.5C 125.5,117.167 125.5,69.8333 125.5,22.5 Z"/></g>
<g><path style="opacity:0.392" fill="#b5cad0" d="M 205.5,73.5 C 208.962,72.5184 212.629,72.185 216.5,72.5C 216.36,74.1238 217.027,75.2904 218.5,76C 214.637,77.3537 210.637,77.8537 206.5,77.5C 205.989,81.7826 206.656,85.7826 208.5,89.5C 207.833,89.8333 207.167,90.1667 206.5,90.5C 208.969,91.1681 211.302,91.8347 213.5,92.5C 210.833,92.5 208.167,92.5 205.5,92.5C 205.5,87.1667 205.5,81.8333 205.5,76.5C 208.833,76.5 212.167,76.5 215.5,76.5C 215.5,75.5 215.5,74.5 215.5,73.5C 212.167,73.5 208.833,73.5 205.5,73.5 Z"/></g>
<g><path style="opacity:0.024" fill="#e3fffe" d="M 66.5,80.5 C 67.525,80.8966 67.6917,81.5632 67,82.5C 66.5357,81.9056 66.369,81.2389 66.5,80.5 Z"/></g>
<g><path style="opacity:0.01" fill="#d5e4ec" d="M 226.5,79.5 C 228.213,80.6354 228.88,82.302 228.5,84.5C 227.463,83.0697 226.796,81.403 226.5,79.5 Z"/></g>
<g><path style="opacity:0.043" fill="#e6e6e6" d="M 60.5,82.5 C 60.1034,83.525 59.4368,83.6917 58.5,83C 59.0944,82.5357 59.7611,82.369 60.5,82.5 Z"/></g>
<g><path style="opacity:1" fill="#29434e" d="M 74.5,84.5 C 74.6716,85.4916 74.3382,86.1583 73.5,86.5C 72.2921,87.2341 70.9587,87.5674 69.5,87.5C 68.2801,85.9504 68.2801,84.2837 69.5,82.5C 72.3019,79.5842 73.9686,80.2509 74.5,84.5 Z"/></g>
<g><path style="opacity:0.02" fill="#cbfffe" d="M 105.5,82.5 C 104.833,83.1667 104.833,83.1667 105.5,82.5 Z"/></g>
<g><path style="opacity:0.071" fill="#e2f1e2" d="M 64.5,83.5 C 65.8333,84.1667 65.8333,84.1667 64.5,83.5 Z"/></g>
<g><path style="opacity:0.008" fill="#fefffe" d="M 76.5,83.5 C 77.8333,84.1667 77.8333,84.1667 76.5,83.5 Z"/></g>
<g><path style="opacity:0.098" fill="#cde1e8" d="M 154.5,78.5 C 155.468,80.6074 155.802,82.9407 155.5,85.5C 156.5,85.5 157.5,85.5 158.5,85.5C 156.485,86.8525 154.818,86.3525 153.5,84C 154.406,82.3005 154.739,80.4672 154.5,78.5 Z"/></g>
<g><path style="opacity:0.986" fill="#374f5a" d="M 171.5,73.5 C 172.167,74.5 172.833,75.5 173.5,76.5C 171.167,76.5 168.833,76.5 166.5,76.5C 166.179,81.6946 166.513,86.6946 167.5,91.5C 168.919,92.4511 170.585,92.7845 172.5,92.5C 172.5,93.5 172.5,94.5 172.5,95.5C 171.5,95.5 170.5,95.5 169.5,95.5C 169.167,95.5 168.833,95.5 168.5,95.5C 166.544,101.412 165.877,107.745 166.5,114.5C 165.811,115.774 164.977,115.774 164,114.5C 163.333,100.833 163.333,87.1667 164,73.5C 166.498,72.2215 168.998,72.2215 171.5,73.5 Z"/></g>
<g><path style="opacity:0.006" fill="#fefffe" d="M 181.5,83.5 C 182.525,83.8966 182.692,84.5632 182,85.5C 181.536,84.9056 181.369,84.2389 181.5,83.5 Z"/></g>
<g><path style="opacity:0.035" fill="#ecfffe" d="M 229.5,85.5 C 229.369,84.7611 229.536,84.0944 230,83.5C 230.692,84.4368 230.525,85.1034 229.5,85.5 Z"/></g>
<g><path style="opacity:0.936" fill="#1e3a43" d="M 237.5,73.5 C 237.5,75.5 237.5,77.5 237.5,79.5C 237.5,86.1667 237.5,92.8333 237.5,99.5C 237.5,102.167 237.5,104.833 237.5,107.5C 237.244,109.792 237.577,111.959 238.5,114C 237.437,115.188 236.103,115.688 234.5,115.5C 233.766,114.292 233.433,112.959 233.5,111.5C 235.652,108.389 235.985,105.056 234.5,101.5C 234.5,100.833 234.5,100.167 234.5,99.5C 234.5,92.1667 234.5,84.8333 234.5,77.5C 234.64,75.8762 233.973,74.7096 232.5,74C 234.244,72.5456 235.911,72.3789 237.5,73.5 Z"/></g>
<g><path style="opacity:0.067" fill="#c2cdd7" d="M 73.5,86.5 C 73.6107,87.1174 73.944,87.6174 74.5,88C 72.6131,88.7796 70.9464,88.6129 69.5,87.5C 70.9587,87.5674 72.2921,87.2341 73.5,86.5 Z"/></g>
<g><path style="opacity:0.047" fill="#e9eae9" d="M 230.5,87.5 C 231.833,88.1667 231.833,88.1667 230.5,87.5 Z"/></g>
<g><path style="opacity:0.573" fill="#7f959e" d="M 173.5,76.5 C 173.5,76.8333 173.5,77.1667 173.5,77.5C 171.5,77.5 169.5,77.5 167.5,77.5C 167.5,82.1667 167.5,86.8333 167.5,91.5C 166.513,86.6946 166.179,81.6946 166.5,76.5C 168.833,76.5 171.167,76.5 173.5,76.5 Z"/></g>
<g><path style="opacity:0.569" fill="#8099a3" d="M 24.5,87.5 C 24.517,91.1242 24.517,94.7908 24.5,98.5C 23.1667,94.8333 23.1667,91.1667 24.5,87.5 Z"/></g>
<g><path style="opacity:0.978" fill="#13323b" d="M 145.5,79.5 C 145.173,89.3478 145.506,99.0144 146.5,108.5C 146.5,108.833 146.5,109.167 146.5,109.5C 146.631,110.239 146.464,110.906 146,111.5C 145.329,110.748 144.496,110.414 143.5,110.5C 142.858,99.7792 143.525,89.4459 145.5,79.5 Z"/></g>
<g><path style="opacity:0.045" fill="#dcdcdc" d="M 151.5,91.5 C 150.761,91.631 150.094,91.4643 149.5,91C 150.437,90.3083 151.103,90.475 151.5,91.5 Z"/></g>
<g><path style="opacity:0.008" fill="#fefffe" d="M 155.5,91.5 C 155.897,90.475 156.563,90.3083 157.5,91C 156.906,91.4643 156.239,91.631 155.5,91.5 Z"/></g>
<g><path style="opacity:0.031" fill="#e3f5f3" d="M 229.5,88.5 C 229.833,88.5 230.167,88.5 230.5,88.5C 231.301,90.0418 231.634,91.7085 231.5,93.5C 230.463,92.0697 229.796,90.403 229.5,88.5 Z"/></g>
<g><path style="opacity:0.292" fill="#a9bec8" d="M 125.5,21.5 C 125.5,21.8333 125.5,22.1667 125.5,22.5C 125.5,69.8333 125.5,117.167 125.5,164.5C 124.733,163.828 124.066,162.995 123.5,162C 124.164,115.069 124.831,68.2357 125.5,21.5 Z"/></g>
<g><path style="opacity:0.059" fill="#dcdddc" d="M 158.5,91.5 C 159.833,92.1667 159.833,92.1667 158.5,91.5 Z"/></g>
<g><path style="opacity:0.188" fill="#c1d9df" d="M 173.5,91.5 C 173.5,92.1667 173.167,92.5 172.5,92.5C 170.585,92.7845 168.919,92.4511 167.5,91.5C 169.5,91.5 171.5,91.5 173.5,91.5 Z"/></g>
<g><path style="opacity:0.012" fill="#fefffe" d="M 214.5,91.5 C 215.833,92.1667 215.833,92.1667 214.5,91.5 Z"/></g>
<g><path style="opacity:0.059" fill="#d1efd9" d="M 69.5,93.5 C 67.8333,93.5 66.1667,93.5 64.5,93.5C 57.9141,92.3742 51.2474,92.2075 44.5,93C 41.4429,94.7643 38.1095,95.5977 34.5,95.5C 34.5,96.5 34.5,97.5 34.5,98.5C 37.1667,98.5 39.8333,98.5 42.5,98.5C 38.988,99.3747 35.488,99.7081 32,99.5C 31.0799,96.6917 31.9133,94.5251 34.5,93C 38.5357,92.2724 42.5357,91.439 46.5,90.5C 53.1166,91.2962 59.7833,91.7962 66.5,92C 67.7375,92.2321 68.7375,92.7321 69.5,93.5 Z"/></g>
<g><path style="opacity:0.008" fill="#fefffe" d="M 108.5,92.5 C 109.833,93.1667 109.833,93.1667 108.5,92.5 Z"/></g>
<g><path style="opacity:1" fill="#284350" d="M 113.5,85.5 C 114.222,85.9175 114.722,86.5842 115,87.5C 115.778,92.5842 115.611,97.5842 114.5,102.5C 113.5,102.833 112.833,103.5 112.5,104.5C 111.5,104.5 110.5,104.5 109.5,104.5C 109.5,102.5 109.5,100.5 109.5,98.5C 110.468,96.3926 110.802,94.0593 110.5,91.5C 110.992,89.1815 111.992,87.1815 113.5,85.5 Z"/></g>
<g><path style="opacity:0.035" fill="#f0f0f0" d="M 149.5,93.5 C 147.972,93.4827 147.472,92.816 148,91.5C 148.717,92.0442 149.217,92.7109 149.5,93.5 Z"/></g>
<g><path style="opacity:0.027" fill="#dceef1" d="M 151.5,91.5 C 153.717,92.3686 156.05,92.702 158.5,92.5C 158.5,92.8333 158.5,93.1667 158.5,93.5C 155.833,93.5 153.167,93.5 150.5,93.5C 150.833,92.8333 151.167,92.1667 151.5,91.5 Z"/></g>
<g><path style="opacity:0.004" fill="#fefffe" d="M 180.5,92.5 C 181.833,93.1667 181.833,93.1667 180.5,92.5 Z"/></g>
<g><path style="opacity:0.012" fill="#dae6eb" d="M 226.5,90.5 C 227.537,91.9303 228.204,93.597 228.5,95.5C 226.787,94.3646 226.12,92.698 226.5,90.5 Z"/></g>
<g><path style="opacity:0.071" fill="#d4f1e2" d="M 178.5,93.5 C 179.833,94.1667 179.833,94.1667 178.5,93.5 Z"/></g>
<g><path style="opacity:1" fill="#344d52" d="M 184.5,73.5 C 189.167,73.5 193.833,73.5 198.5,73.5C 198.854,76.4935 197.854,77.4935 195.5,76.5C 192.833,76.5 190.167,76.5 187.5,76.5C 187.5,81.8333 187.5,87.1667 187.5,92.5C 190.167,92.5 192.833,92.5 195.5,92.5C 196.116,93.2022 196.116,94.2022 195.5,95.5C 192.833,95.5 190.167,95.5 187.5,95.5C 185.544,101.412 184.877,107.745 185.5,114.5C 187.833,114.5 190.167,114.5 192.5,114.5C 190.052,115.473 187.385,115.806 184.5,115.5C 184.5,101.5 184.5,87.5 184.5,73.5 Z"/></g>
<g><path style="opacity:0.995" fill="#88be98" d="M 64.5,93.5 C 65.4525,95.61 67.1192,96.7767 69.5,97C 60.324,97.1703 51.324,97.6703 42.5,98.5C 39.8333,98.5 37.1667,98.5 34.5,98.5C 34.5,97.5 34.5,96.5 34.5,95.5C 38.1095,95.5977 41.4429,94.7643 44.5,93C 51.2474,92.2075 57.9141,92.3742 64.5,93.5 Z"/></g>
<g><path style="opacity:0.004" fill="#edf4f4" d="M 149.5,93.5 C 149.833,93.5 150.167,93.5 150.5,93.5C 150.5,94.5 150.5,95.5 150.5,96.5C 148.519,95.8946 148.185,94.8946 149.5,93.5 Z"/></g>
<g><path style="opacity:0.008" fill="#fefffe" d="M 199.5,94.5 C 200.833,95.1667 200.833,95.1667 199.5,94.5 Z"/></g>
<g><path style="opacity:0.012" fill="#e6edee" d="M 169.5,95.5 C 170.5,95.5 171.5,95.5 172.5,95.5C 173.167,95.5 173.5,95.8333 173.5,96.5C 171.737,97.9538 170.403,97.6204 169.5,95.5 Z"/></g>
<g><path style="opacity:0.998" fill="#203b43" d="M 204.5,73.5 C 204.833,73.5 205.167,73.5 205.5,73.5C 208.833,73.5 212.167,73.5 215.5,73.5C 215.5,74.5 215.5,75.5 215.5,76.5C 212.167,76.5 208.833,76.5 205.5,76.5C 205.5,81.8333 205.5,87.1667 205.5,92.5C 208.167,92.5 210.833,92.5 213.5,92.5C 213.833,92.5 214.167,92.5 214.5,92.5C 213.89,93.391 213.557,94.391 213.5,95.5C 210.833,95.5 208.167,95.5 205.5,95.5C 205.5,100.833 205.5,106.167 205.5,111.5C 209.167,111.5 212.833,111.5 216.5,111.5C 216.577,112.75 217.244,113.583 218.5,114C 214.974,115.337 211.308,115.837 207.5,115.5C 206.088,114.834 204.755,114.501 203.5,114.5C 203.171,100.656 203.504,86.9898 204.5,73.5 Z"/></g>
<g><path style="opacity:0.392" fill="#b4c7d1" d="M 213.5,95.5 C 211.987,96.5098 209.653,96.8431 206.5,96.5C 206.5,101.167 206.5,105.833 206.5,110.5C 210.042,110.187 213.375,110.521 216.5,111.5C 212.833,111.5 209.167,111.5 205.5,111.5C 205.5,106.167 205.5,100.833 205.5,95.5C 208.167,95.5 210.833,95.5 213.5,95.5 Z"/></g>
<g><path style="opacity:0.662" fill="#627a82" d="M 224.5,72.5 C 224.5,72.8333 224.5,73.1667 224.5,73.5C 223.5,73.5 222.5,73.5 221.5,73.5C 221.5,74.8333 221.5,76.1667 221.5,77.5C 221.5,89.8333 221.5,102.167 221.5,114.5C 221.167,114.5 220.833,114.5 220.5,114.5C 220.807,101.228 220.473,87.7279 219.5,74C 221.033,72.1919 222.7,71.6919 224.5,72.5 Z"/></g>
<g><path style="opacity:0.997" fill="#1c3a3e" d="M 187.5,95.5 C 187.179,101.026 187.512,106.36 188.5,111.5C 191.833,111.5 195.167,111.5 198.5,111.5C 198.5,111.833 198.5,112.167 198.5,112.5C 198.5,113.167 198.5,113.833 198.5,114.5C 198.5,114.833 198.5,115.167 198.5,115.5C 197.417,115.461 196.417,115.127 195.5,114.5C 194.808,115.025 194.308,115.692 194,116.5C 193.722,115.584 193.222,114.918 192.5,114.5C 190.167,114.5 187.833,114.5 185.5,114.5C 184.877,107.745 185.544,101.412 187.5,95.5 Z"/></g>
<g><path style="opacity:0.47" fill="#99aeaf" d="M 187.5,95.5 C 190.167,95.5 192.833,95.5 195.5,95.5C 193.393,96.4682 191.059,96.8016 188.5,96.5C 188.5,100.833 188.5,105.167 188.5,109.5C 188.5,110.167 188.5,110.833 188.5,111.5C 187.512,106.36 187.179,101.026 187.5,95.5 Z"/></g>
<g><path style="opacity:0.016" fill="#eefffe" d="M 109.5,98.5 C 108.475,98.1034 108.308,97.4368 109,96.5C 109.464,97.0944 109.631,97.7611 109.5,98.5 Z"/></g>
<g><path style="opacity:0.004" fill="#fefffe" d="M 148.5,97.5 C 149.833,98.1667 149.833,98.1667 148.5,97.5 Z"/></g>
<g><path style="opacity:0.004" fill="#fefffe" d="M 26.5,98.5 C 27.525,98.8966 27.6917,99.5632 27,100.5C 26.5357,99.9056 26.369,99.2389 26.5,98.5 Z"/></g>
<g><path style="opacity:0.008" fill="#fefffe" d="M 152.5,98.5 C 153.833,99.1667 153.833,99.1667 152.5,98.5 Z"/></g>
<g><path style="opacity:0.047" fill="#f0f0f0" d="M 174.5,98.5 C 174.103,99.525 173.437,99.6917 172.5,99C 173.094,98.5357 173.761,98.369 174.5,98.5 Z"/></g>
<g><path style="opacity:0.329" fill="#d9f0e0" d="M 79.5,96.5 C 85.0061,97.3245 89.6728,99.6579 93.5,103.5C 93.1667,103.5 92.8333,103.5 92.5,103.5C 87.9726,101.405 83.6392,99.0716 79.5,96.5 Z"/></g>
<g><path style="opacity:0.008" fill="#fefffe" d="M 182.5,99.5 C 183.525,99.8966 183.692,100.563 183,101.5C 182.536,100.906 182.369,100.239 182.5,99.5 Z"/></g>
<g><path style="opacity:0.006" fill="#fefffe" d="M 37.5,101.5 C 37.8966,100.475 38.5632,100.308 39.5,101C 38.9056,101.464 38.2389,101.631 37.5,101.5 Z"/></g>
<g><path style="opacity:1" fill="#99caa7" d="M 64.5,93.5 C 66.1667,93.5 67.8333,93.5 69.5,93.5C 73.0248,94.2097 76.3582,95.2097 79.5,96.5C 83.6392,99.0716 87.9726,101.405 92.5,103.5C 93.0065,104.859 94.0065,105.859 95.5,106.5C 95,106.833 94.5,107.167 94,107.5C 91.9011,106.713 89.7345,106.38 87.5,106.5C 73.4283,99.0603 58.4283,96.3936 42.5,98.5C 51.324,97.6703 60.324,97.1703 69.5,97C 67.1192,96.7767 65.4525,95.61 64.5,93.5 Z"/></g>
<g><path style="opacity:0.047" fill="#e4f4f4" d="M 107.5,99.5 C 108.573,100.251 108.74,101.251 108,102.5C 107.517,101.552 107.351,100.552 107.5,99.5 Z"/></g>
<g><path style="opacity:0.071" fill="#d8eaf2" d="M 150.5,96.5 C 152.167,96.5 153.833,96.5 155.5,96.5C 155.5,99.1667 155.5,101.833 155.5,104.5C 153.258,102.548 152.924,100.215 154.5,97.5C 152.901,97.7678 151.568,97.4345 150.5,96.5 Z"/></g>
<g><path style="opacity:0.008" fill="#fefffe" d="M 227.5,100.5 C 228.833,101.167 228.833,101.167 227.5,100.5 Z"/></g>
<g><path style="opacity:0.027" fill="#eafffe" d="M 237.5,99.5 C 238.254,102.023 238.92,104.689 239.5,107.5C 239.03,108.463 238.363,108.463 237.5,107.5C 237.5,104.833 237.5,102.167 237.5,99.5 Z"/></g>
<g><path style="opacity:0.616" fill="#6b8187" d="M 168.5,95.5 C 167.87,101.934 167.203,108.267 166.5,114.5C 165.877,107.745 166.544,101.412 168.5,95.5 Z"/></g>
<g><path style="opacity:0.047" fill="#f0f0f0" d="M 180.5,100.5 C 181.525,100.897 181.692,101.563 181,102.5C 180.536,101.906 180.369,101.239 180.5,100.5 Z"/></g>
<g><path style="opacity:0.427" fill="#b4c3cb" d="M 19.5,100.5 C 20.4682,102.607 20.8016,104.941 20.5,107.5C 19.6236,107.631 18.9569,107.298 18.5,106.5C 18.7437,104.45 19.077,102.45 19.5,100.5 Z"/></g>
<g><path style="opacity:0.322" fill="#acbcc2" d="M 145.5,79.5 C 145.833,79.5 146.167,79.5 146.5,79.5C 146.887,89.5128 146.887,99.1795 146.5,108.5C 145.506,99.0144 145.173,89.3478 145.5,79.5 Z"/></g>
<g><path style="opacity:0.008" fill="#fefffe" d="M 168.5,102.5 C 169.833,103.167 169.833,103.167 168.5,102.5 Z"/></g>
<g><path style="opacity:0.082" fill="#c1c7ce" d="M 114.5,102.5 C 114.938,102.435 115.272,102.601 115.5,103C 114.756,104.039 113.756,104.539 112.5,104.5C 112.833,103.5 113.5,102.833 114.5,102.5 Z"/></g>
<g><path style="opacity:0.99" fill="#445c65" d="M 178.5,76.5 C 179.166,80.4701 179.832,84.4701 180.5,88.5C 179.62,90.4292 178.62,92.2626 177.5,94C 179.747,99.8877 180.747,106.054 180.5,112.5C 179.596,113.209 179.263,114.209 179.5,115.5C 178.5,115.5 177.5,115.5 176.5,115.5C 175.874,109.732 175.207,104.066 174.5,98.5C 174.167,97.8333 173.833,97.1667 173.5,96.5C 173.5,95.8333 173.167,95.5 172.5,95.5C 172.5,94.5 172.5,93.5 172.5,92.5C 173.167,92.5 173.5,92.1667 173.5,91.5C 176.167,86.8333 176.167,82.1667 173.5,77.5C 173.5,77.1667 173.5,76.8333 173.5,76.5C 172.833,75.5 172.167,74.5 171.5,73.5C 171.435,73.0618 171.601,72.7284 172,72.5C 174.561,73.2341 176.727,74.5675 178.5,76.5 Z"/></g>
<g><path style="opacity:0.563" fill="#798e90" d="M 204.5,73.5 C 203.504,86.9898 203.171,100.656 203.5,114.5C 202.761,114.631 202.094,114.464 201.5,114C 202.159,100.229 202.825,86.3961 203.5,72.5C 204.107,72.6236 204.44,72.9569 204.5,73.5 Z"/></g>
<g><path style="opacity:0.02" fill="#cbfffe" d="M 39.5,104.5 C 40.8333,105.167 40.8333,105.167 39.5,104.5 Z"/></g>
<g><path style="opacity:0.012" fill="#fefffe" d="M 147.5,104.5 C 148.833,105.167 148.833,105.167 147.5,104.5 Z"/></g>
<g><path style="opacity:0.01" fill="#eaeef1" d="M 25.5,105.5 C 26.3764,105.369 27.0431,105.702 27.5,106.5C 26.8728,107.417 26.5394,108.417 26.5,109.5C 25.5655,108.432 25.2322,107.099 25.5,105.5 Z"/></g>
<g><path style="opacity:0.122" fill="#d6f2df" d="M 71.5,106.5 C 71.5,106.833 71.5,107.167 71.5,107.5C 63.5246,106.724 55.5246,106.39 47.5,106.5C 43.5341,107.162 39.5341,107.495 35.5,107.5C 36.6715,106.655 38.0048,105.989 39.5,105.5C 39.7352,106.097 40.2352,106.43 41,106.5C 42.8114,105.922 44.6447,105.422 46.5,105C 53.561,104.843 60.561,104.677 67.5,104.5C 68.6956,104.846 68.6956,105.346 67.5,106C 68.7932,106.49 70.1266,106.657 71.5,106.5 Z"/></g>
<g><path style="opacity:0.004" fill="#f7f7f7" d="M 71.5,106.5 C 71.8966,105.475 72.5632,105.308 73.5,106C 72.9056,106.464 72.2389,106.631 71.5,106.5 Z"/></g>
<g><path style="opacity:0.006" fill="#fefffe" d="M 112.5,106.5 C 112.897,105.475 113.563,105.308 114.5,106C 113.906,106.464 113.239,106.631 112.5,106.5 Z"/></g>
<g><path style="opacity:0.987" fill="#284350" d="M 24.5,86.5 C 24.5,86.8333 24.5,87.1667 24.5,87.5C 23.1667,91.1667 23.1667,94.8333 24.5,98.5C 25.3686,100.717 25.702,103.05 25.5,105.5C 25.2322,107.099 25.5655,108.432 26.5,109.5C 27.4552,111.746 28.1218,114.079 28.5,116.5C 28.762,117.978 28.4287,119.311 27.5,120.5C 26.7348,119.388 25.7348,118.721 24.5,118.5C 23.8333,117.5 23.1667,116.5 22.5,115.5C 21.2264,113.007 20.5597,110.341 20.5,107.5C 20.8016,104.941 20.4682,102.607 19.5,100.5C 19.5,99.8333 19.5,99.1667 19.5,98.5C 19.5,94.8333 19.5,91.1667 19.5,87.5C 20.3227,90.977 20.8227,94.6437 21,98.5C 22.1447,93.9174 22.8113,89.2508 23,84.5C 23.3333,83.8333 23.6667,83.1667 24,82.5C 24.49,83.7932 24.6567,85.1266 24.5,86.5 Z"/></g>
<g><path style="opacity:1" fill="#11303c" d="M 221.5,77.5 C 222.239,77.369 222.906,77.5357 223.5,78C 222.272,79.4902 222.272,80.9902 223.5,82.5C 224.143,93.5524 223.476,104.219 221.5,114.5C 221.5,102.167 221.5,89.8333 221.5,77.5 Z"/></g>
<g><path style="opacity:0.998" fill="#82bf94" d="M 47.5,106.5 C 55.5246,106.39 63.5246,106.724 71.5,107.5C 73.7916,109.267 76.4582,110.267 79.5,110.5C 79.5774,111.75 80.244,112.583 81.5,113C 77.8798,113.841 74.5464,113.174 71.5,111C 68.854,110.503 66.1873,110.336 63.5,110.5C 58.3595,109.512 53.0262,109.179 47.5,109.5C 47.5,108.5 47.5,107.5 47.5,106.5 Z"/></g>
<g><path style="opacity:0.161" fill="#d9f1da" d="M 71.5,107.5 C 74.716,107.345 77.3826,108.345 79.5,110.5C 76.4582,110.267 73.7916,109.267 71.5,107.5 Z"/></g>
<g><path style="opacity:0.017" fill="#e7f8ec" d="M 97.5,105.5 C 100.199,105.466 102.699,106.133 105,107.5C 105.414,107.043 105.914,106.709 106.5,106.5C 107.548,107.548 108.548,108.548 109.5,109.5C 105.213,108.768 101.213,107.435 97.5,105.5 Z"/></g>
<g><path style="opacity:0.008" fill="#fefffe" d="M 140.5,107.5 C 141.525,107.897 141.692,108.563 141,109.5C 140.536,108.906 140.369,108.239 140.5,107.5 Z"/></g>
<g><path style="opacity:0.016" fill="#fefffe" d="M 231.5,108.5 C 230.833,109.167 230.833,109.167 231.5,108.5 Z"/></g>
<g><path style="opacity:0.894" fill="#85b994" d="M 47.5,106.5 C 47.5,107.5 47.5,108.5 47.5,109.5C 53.0262,109.179 58.3595,109.512 63.5,110.5C 62.5,110.5 61.5,110.5 60.5,110.5C 52.1523,110.543 43.819,110.876 35.5,111.5C 35.5,110.167 35.5,108.833 35.5,107.5C 39.5341,107.495 43.5341,107.162 47.5,106.5 Z"/></g>
<g><path style="opacity:0.988" fill="#9dcdac" d="M 92.5,103.5 C 92.8333,103.5 93.1667,103.5 93.5,103.5C 95.153,103.66 96.4863,104.326 97.5,105.5C 101.213,107.435 105.213,108.768 109.5,109.5C 110.583,109.461 111.583,109.127 112.5,108.5C 113.298,108.957 113.631,109.624 113.5,110.5C 109.033,110.133 104.7,110.633 100.5,112C 102.491,112.374 104.158,113.207 105.5,114.5C 98.8432,113.143 92.8432,110.476 87.5,106.5C 89.7345,106.38 91.9011,106.713 94,107.5C 94.5,107.167 95,106.833 95.5,106.5C 94.0065,105.859 93.0065,104.859 92.5,103.5 Z"/></g>
<g><path style="opacity:0.009" fill="#f4f6f8" d="M 153.5,110.5 C 153.5,111.167 153.167,111.5 152.5,111.5C 151.5,111.5 150.5,111.5 149.5,111.5C 149.369,110.761 149.536,110.094 150,109.5C 151.145,109.619 152.312,109.952 153.5,110.5 Z"/></g>
<g><path style="opacity:0.351" fill="#a9bdc0" d="M 223.5,82.5 C 225.104,83.287 225.771,84.6203 225.5,86.5C 224.167,86.8333 224.167,87.1667 225.5,87.5C 226.338,87.8417 226.672,88.5084 226.5,89.5C 225.883,89.3893 225.383,89.056 225,88.5C 224.108,91.4525 224.608,94.1192 226.5,96.5C 226.154,97.6956 225.654,97.6956 225,96.5C 224.667,102.833 224.333,109.167 224,115.5C 222.687,116.287 221.52,115.954 220.5,114.5C 220.833,114.5 221.167,114.5 221.5,114.5C 223.476,104.219 224.143,93.5524 223.5,82.5 Z"/></g>
<g><path style="opacity:0.137" fill="#d5f3dd" d="M 35.5,107.5 C 35.5,108.833 35.5,110.167 35.5,111.5C 43.819,110.876 52.1523,110.543 60.5,110.5C 64.231,111.225 67.8977,112.225 71.5,113.5C 65.491,112.965 59.491,112.299 53.5,111.5C 47.6848,111.98 42.1848,112.646 37,113.5C 33.6467,111.882 33.1467,109.882 35.5,107.5 Z"/></g>
<g><path style="opacity:0.046" fill="#e7ebf1" d="M 188.5,109.5 C 192.527,110.036 195.86,110.703 198.5,111.5C 195.167,111.5 191.833,111.5 188.5,111.5C 188.5,110.833 188.5,110.167 188.5,109.5 Z"/></g>
<g><path style="opacity:0.008" fill="#fefffe" d="M 28.5,111.5 C 29.8333,112.167 29.8333,112.167 28.5,111.5 Z"/></g>
<g><path style="opacity:0.984" fill="#475c65" d="M 146.5,109.5 C 147.5,110.167 148.5,110.833 149.5,111.5C 150.5,111.5 151.5,111.5 152.5,111.5C 150.58,112.065 148.913,113.065 147.5,114.5C 146.833,114.5 146.167,114.5 145.5,114.5C 144.4,113.395 143.733,112.062 143.5,110.5C 144.496,110.414 145.329,110.748 146,111.5C 146.464,110.906 146.631,110.239 146.5,109.5 Z"/></g>
<g><path style="opacity:0.031" fill="#dedffe" d="M 217.5,111.5 C 218.833,112.167 218.833,112.167 217.5,111.5 Z"/></g>
<g><path style="opacity:0.008" fill="#fefffe" d="M 238.5,111.5 C 239.833,112.167 239.833,112.167 238.5,111.5 Z"/></g>
<g><path style="opacity:0.991" fill="#183f4f" d="M 126.5,95.5 C 127.167,95.5 127.833,95.5 128.5,95.5C 128.989,118.317 128.489,140.984 127,163.5C 126.5,140.836 126.333,118.169 126.5,95.5 Z"/></g>
<g><path style="opacity:1" fill="#344d5b" d="M 150.5,93.5 C 153.167,93.5 155.833,93.5 158.5,93.5C 159.799,100.44 159.799,107.44 158.5,114.5C 156.965,113.646 155.632,113.646 154.5,114.5C 152.167,114.5 149.833,114.5 147.5,114.5C 148.913,113.065 150.58,112.065 152.5,111.5C 153.167,111.5 153.5,111.167 153.5,110.5C 154.167,108.5 154.833,106.5 155.5,104.5C 155.5,101.833 155.5,99.1667 155.5,96.5C 153.833,96.5 152.167,96.5 150.5,96.5C 150.5,95.5 150.5,94.5 150.5,93.5 Z"/></g>
<g><path style="opacity:0.063" fill="#e9f4f4" d="M 160.5,113.5 C 160.897,112.475 161.563,112.308 162.5,113C 161.906,113.464 161.239,113.631 160.5,113.5 Z"/></g>
<g><path style="opacity:0.02" fill="#fefffe" d="M 180.5,112.5 C 181.833,113.167 181.833,113.167 180.5,112.5 Z"/></g>
<g><path style="opacity:0.01" fill="#f8f8f8" d="M 198.5,112.5 C 200.933,112.786 200.933,113.452 198.5,114.5C 198.5,113.833 198.5,113.167 198.5,112.5 Z"/></g>
<g><path style="opacity:1" fill="#98c7a4" d="M 60.5,110.5 C 61.5,110.5 62.5,110.5 63.5,110.5C 66.1873,110.336 68.854,110.503 71.5,111C 74.5464,113.174 77.8798,113.841 81.5,113C 80.244,112.583 79.5774,111.75 79.5,110.5C 83.9233,110.884 87.59,112.551 90.5,115.5C 88.4727,115.338 86.4727,115.505 84.5,116C 83.944,116.383 83.6107,116.883 83.5,117.5C 82.2921,116.766 80.9587,116.433 79.5,116.5C 76.7903,115.494 74.1237,114.494 71.5,113.5C 67.8977,112.225 64.231,111.225 60.5,110.5 Z"/></g>
<g><path style="opacity:0.992" fill="#8ec19d" d="M 113.5,110.5 C 114.5,110.5 115.5,110.5 116.5,110.5C 116.854,112.541 116.854,114.374 116.5,116C 112.69,116.587 109.023,116.087 105.5,114.5C 104.158,113.207 102.491,112.374 100.5,112C 104.7,110.633 109.033,110.133 113.5,110.5 Z"/></g>
<g><path style="opacity:0.11" fill="#d0e4da" d="M 145.5,114.5 C 145.5,114.833 145.5,115.167 145.5,115.5C 144.83,115.019 144.83,114.685 145.5,114.5 Z"/></g>
<g><path style="opacity:0.51" fill="#a5adbb" d="M 147.5,114.5 C 149.833,114.5 152.167,114.5 154.5,114.5C 152.833,115.167 151.167,115.833 149.5,116.5C 148.5,116.167 147.833,115.5 147.5,114.5 Z"/></g>
<g><path style="opacity:0.278" fill="#a8bfc3" d="M 154.5,114.5 C 155.632,113.646 156.965,113.646 158.5,114.5C 158.631,115.239 158.464,115.906 158,116.5C 156.887,115.695 155.721,115.028 154.5,114.5 Z"/></g>
<g><path style="opacity:0.027" fill="#dadbda" d="M 161.5,114.5 C 162.833,115.167 162.833,115.167 161.5,114.5 Z"/></g>
<g><path style="opacity:0.063" fill="#dedfde" d="M 145.5,115.5 C 146.833,116.167 146.833,116.167 145.5,115.5 Z"/></g>
<g><path style="opacity:0.035" fill="#e2e3e2" d="M 176.5,115.5 C 175.833,116.167 175.833,116.167 176.5,115.5 Z"/></g>
<g><path style="opacity:0.008" fill="#fefffe" d="M 198.5,115.5 C 199.833,116.167 199.833,116.167 198.5,115.5 Z"/></g>
<g><path style="opacity:0.024" fill="#d4fffe" d="M 207.5,115.5 C 206.833,116.167 206.833,116.167 207.5,115.5 Z"/></g>
<g><path style="opacity:0.071" fill="#d4e3d4" d="M 234.5,115.5 C 233.833,116.167 233.833,116.167 234.5,115.5 Z"/></g>
<g><path style="opacity:0.059" fill="#dcdddc" d="M 149.5,116.5 C 150.833,117.167 150.833,117.167 149.5,116.5 Z"/></g>
<g><path style="opacity:0.016" fill="#fefffe" d="M 154.5,116.5 C 155.833,117.167 155.833,117.167 154.5,116.5 Z"/></g>
<g><path style="opacity:0.01" fill="#e0edf0" d="M 22.5,115.5 C 23.1667,116.5 23.8333,117.5 24.5,118.5C 24.5,119.167 24.5,119.833 24.5,120.5C 22.3411,119.215 21.6745,117.548 22.5,115.5 Z"/></g>
<g><path style="opacity:0.067" fill="#ddfbe4" d="M 79.5,116.5 C 80.9587,116.433 82.2921,116.766 83.5,117.5C 85.5368,118.846 87.5368,120.18 89.5,121.5C 85.6777,120.646 82.3443,118.979 79.5,116.5 Z"/></g>
<g><path style="opacity:0.035" fill="#daf9e7" d="M 47.5,119.5 C 61.177,116.703 73.8436,119.036 85.5,126.5C 83.4214,126.029 81.4214,125.363 79.5,124.5C 74.3166,122.55 68.9833,121.216 63.5,120.5C 58.3595,119.512 53.0262,119.179 47.5,119.5 Z"/></g>
<g><path style="opacity:0.012" fill="#fefffe" d="M 146.5,119.5 C 147.833,120.167 147.833,120.167 146.5,119.5 Z"/></g>
<g><path style="opacity:0.02" fill="#cbfffe" d="M 154.5,119.5 C 155.833,120.167 155.833,120.167 154.5,119.5 Z"/></g>
<g><path style="opacity:0.008" fill="#fefffe" d="M 168.5,119.5 C 169.833,120.167 169.833,120.167 168.5,119.5 Z"/></g>
<g><path style="opacity:0.078" fill="#d8e6e5" d="M 187.5,119.5 C 188.833,120.167 188.833,120.167 187.5,119.5 Z"/></g>
<g><path style="opacity:0.008" fill="#fefffe" d="M 207.5,119.5 C 208.833,120.167 208.833,120.167 207.5,119.5 Z"/></g>
<g><path style="opacity:0.031" fill="#dedffe" d="M 230.5,119.5 C 231.833,120.167 231.833,120.167 230.5,119.5 Z"/></g>
<g><path style="opacity:0.989" fill="#8fbf9e" d="M 47.5,119.5 C 53.0262,119.179 58.3595,119.512 63.5,120.5C 58.8215,120.334 54.1548,120.501 49.5,121C 50.5,121.333 51.5,121.667 52.5,122C 50.8333,122.333 49.1667,122.667 47.5,123C 53.0158,123.173 58.3491,123.673 63.5,124.5C 56.1667,124.5 48.8333,124.5 41.5,124.5C 41.5,123.167 41.5,121.833 41.5,120.5C 43.2646,119.539 45.2646,119.205 47.5,119.5 Z"/></g>
<g><path style="opacity:0.055" fill="#e0f8e6" d="M 107.5,122.5 C 102.536,122.184 98.2027,120.517 94.5,117.5C 99.004,117.788 103.337,119.455 107.5,122.5 Z"/></g>
<g><path style="opacity:0.027" fill="#dadbda" d="M 156.5,120.5 C 157.833,121.167 157.833,121.167 156.5,120.5 Z"/></g>
<g><path style="opacity:0.043" fill="#d0e8e7" d="M 175.5,120.5 C 176.833,121.167 176.833,121.167 175.5,120.5 Z"/></g>
<g><path style="opacity:0.125" fill="#d7e1e7" d="M 195.5,121.5 C 193.833,121.5 192.167,121.5 190.5,121.5C 191.878,120.766 193.378,120.099 195,119.5C 195.464,120.094 195.631,120.761 195.5,121.5 Z"/></g>
<g><path style="opacity:0.039" fill="#e5e6e5" d="M 240.5,120.5 C 241.833,121.167 241.833,121.167 240.5,120.5 Z"/></g>
<g><path style="opacity:0.004" fill="#fefffe" d="M 36.5,121.5 C 37.8333,122.167 37.8333,122.167 36.5,121.5 Z"/></g>
<g><path style="opacity:1" fill="#88be98" d="M 63.5,120.5 C 68.9833,121.216 74.3166,122.55 79.5,124.5C 79.5,125.5 79.5,126.5 79.5,127.5C 77.5,127.5 75.5,127.5 73.5,127.5C 70.0945,127.044 66.7611,126.378 63.5,125.5C 63.5,125.167 63.5,124.833 63.5,124.5C 58.3491,123.673 53.0158,123.173 47.5,123C 49.1667,122.667 50.8333,122.333 52.5,122C 51.5,121.667 50.5,121.333 49.5,121C 54.1548,120.501 58.8215,120.334 63.5,120.5 Z"/></g>
<g><path style="opacity:0.016" fill="#befffe" d="M 178.5,121.5 C 179.833,122.167 179.833,122.167 178.5,121.5 Z"/></g>
<g><path style="opacity:0.071" fill="#e2e3e2" d="M 33.5,123.5 C 32.8333,122.167 32.8333,122.167 33.5,123.5 Z"/></g>
<g><path style="opacity:0.004" fill="#fefffe" d="M 141.5,122.5 C 142.833,123.167 142.833,123.167 141.5,122.5 Z"/></g>
<g><path style="opacity:0.016" fill="#e5f5f5" d="M 187.5,122.5 C 187.5,122.833 187.5,123.167 187.5,123.5C 186.833,123.833 186.167,124.167 185.5,124.5C 184.34,122.797 185.007,122.131 187.5,122.5 Z"/></g>
<g><path style="opacity:0.004" fill="#fefffe" d="M 199.5,122.5 C 200.833,123.167 200.833,123.167 199.5,122.5 Z"/></g>
<g><path style="opacity:0.016" fill="#fefffe" d="M 33.5,123.5 C 34.1667,123.5 34.5,123.833 34.5,124.5C 34.1667,124.167 33.8333,123.833 33.5,123.5 Z"/></g>
<g><path style="opacity:0.984" fill="#b0d2bb" d="M 89.5,121.5 C 94.9837,122.828 100.317,124.661 105.5,127C 108.146,127.497 110.813,127.664 113.5,127.5C 113.473,125.801 112.806,124.467 111.5,123.5C 113.167,123.5 114.833,123.5 116.5,123.5C 116.5,125.833 116.5,128.167 116.5,130.5C 106.733,129.432 97.7329,126.432 89.5,121.5 Z"/></g>
<g><path style="opacity:0.997" fill="#88c099" d="M 90.5,115.5 C 92.0618,115.733 93.3951,116.4 94.5,117.5C 98.2027,120.517 102.536,122.184 107.5,122.5C 108.583,122.461 109.583,122.127 110.5,121.5C 110.787,122.2 111.12,122.867 111.5,123.5C 112.806,124.467 113.473,125.801 113.5,127.5C 110.813,127.664 108.146,127.497 105.5,127C 100.317,124.661 94.9837,122.828 89.5,121.5C 87.5368,120.18 85.5368,118.846 83.5,117.5C 83.6107,116.883 83.944,116.383 84.5,116C 86.4727,115.505 88.4727,115.338 90.5,115.5 Z"/></g>
<g><path style="opacity:0.012" fill="#e6f0f0" d="M 176.5,123.5 C 177.833,123.5 178.5,124.167 178.5,125.5C 177.5,125.167 176.833,124.5 176.5,123.5 Z"/></g>
<g><path style="opacity:0.055" fill="#daedec" d="M 242.5,123.5 C 243.833,124.167 243.833,124.167 242.5,123.5 Z"/></g>
<g><path style="opacity:0.012" fill="#fefffe" d="M 34.5,124.5 C 35.2891,124.783 35.9558,125.283 36.5,126C 35.184,126.528 34.5173,126.028 34.5,124.5 Z"/></g>
<g><path style="opacity:0.447" fill="#cce3d0" d="M 41.5,120.5 C 41.5,121.833 41.5,123.167 41.5,124.5C 48.8333,124.5 56.1667,124.5 63.5,124.5C 63.5,124.833 63.5,125.167 63.5,125.5C 56.9102,125.189 50.4102,125.522 44,126.5C 40.3395,126.102 38.5062,124.102 38.5,120.5C 39.5,120.5 40.5,120.5 41.5,120.5 Z"/></g>
<g><path style="opacity:0.024" fill="#fefffe" d="M 225.5,124.5 C 226.833,125.167 226.833,125.167 225.5,124.5 Z"/></g>
<g><path style="opacity:0.043" fill="#f3f3f3" d="M 117.5,124.5 C 118.573,125.251 118.74,126.251 118,127.5C 117.517,126.552 117.351,125.552 117.5,124.5 Z"/></g>
<g><path style="opacity:0.976" fill="#495f68" d="M 156.5,134.5 C 155.833,132.167 155.167,129.833 154.5,127.5C 153.713,125.896 152.38,125.229 150.5,125.5C 150.5,124.833 150.167,124.5 149.5,124.5C 147.5,124.5 146.5,125.5 146.5,127.5C 146.334,137.506 146.5,147.506 147,157.5C 149.494,160.086 151.994,160.086 154.5,157.5C 155.167,157.5 155.5,157.167 155.5,156.5C 157.368,157.786 157.534,159.119 156,160.5C 155.549,158.071 154.715,157.904 153.5,160C 154.91,161.372 156.577,162.205 158.5,162.5C 158.5,163.167 158.167,163.5 157.5,163.5C 151.781,165.258 146.948,163.925 143,159.5C 142.821,148.59 142.321,137.757 141.5,127C 143.041,125.421 144.208,123.587 145,121.5C 145.333,121.833 145.667,122.167 146,122.5C 153.878,119.092 158.378,121.759 159.5,130.5C 159.89,132.982 158.89,134.315 156.5,134.5 Z"/></g>
<g><path style="opacity:0.051" fill="#d7ebea" d="M 149.5,125.5 C 149.833,125.5 150.167,125.5 150.5,125.5C 150.315,126.17 149.981,126.17 149.5,125.5 Z"/></g>
<g><path style="opacity:0.004" fill="#fefffe" d="M 181.5,126.5 C 180.833,125.167 180.833,125.167 181.5,126.5 Z"/></g>
<g><path style="opacity:0.996" fill="#5c7078" d="M 190.5,121.5 C 192.167,121.5 193.833,121.5 195.5,121.5C 197.062,121.733 198.395,122.4 199.5,123.5C 199.833,124.833 200.167,126.167 200.5,127.5C 199.603,126.402 198.77,126.402 198,127.5C 197.5,137.161 197.334,146.828 197.5,156.5C 197.5,157.167 197.167,157.5 196.5,157.5C 196.5,147.5 196.5,137.5 196.5,127.5C 196.306,125.088 194.973,124.088 192.5,124.5C 191.167,125.5 189.833,126.5 188.5,127.5C 188.567,126.041 188.234,124.708 187.5,123.5C 187.5,123.167 187.5,122.833 187.5,122.5C 188.209,121.596 189.209,121.263 190.5,121.5 Z"/></g>
<g><path style="opacity:0.051" fill="#c6dbe4" d="M 192.5,124.5 C 194.973,124.088 196.306,125.088 196.5,127.5C 194.77,126.974 193.436,125.974 192.5,124.5 Z"/></g>
<g><path style="opacity:0.02" fill="#fefffe" d="M 40.5,126.5 C 41.8333,127.167 41.8333,127.167 40.5,126.5 Z"/></g>
<g><path style="opacity:0.02" fill="#bbd6dc" d="M 149.5,124.5 C 149.5,124.833 149.5,125.167 149.5,125.5C 148.5,126.167 147.5,126.833 146.5,127.5C 146.5,125.5 147.5,124.5 149.5,124.5 Z"/></g>
<g><path style="opacity:0.008" fill="#fefffe" d="M 160.5,127.5 C 160.897,126.475 161.563,126.308 162.5,127C 161.906,127.464 161.239,127.631 160.5,127.5 Z"/></g>
<g><path style="opacity:0.012" fill="#fefffe" d="M 181.5,126.5 C 182.833,127.167 182.833,127.167 181.5,126.5 Z"/></g>
<g><path style="opacity:0.02" fill="#fefffe" d="M 203.5,126.5 C 204.833,127.167 204.833,127.167 203.5,126.5 Z"/></g>
<g><path style="opacity:0.352" fill="#a5b5bd" d="M 221.5,121.5 C 222.234,122.878 222.901,124.378 223.5,126C 222.844,136.931 222.177,147.765 221.5,158.5C 221.5,158.167 221.5,157.833 221.5,157.5C 221.5,145.833 221.5,134.167 221.5,122.5C 221.5,122.167 221.5,121.833 221.5,121.5 Z"/></g>
<g><path style="opacity:0.975" fill="#142f37" d="M 238.5,122.5 C 237.833,123.167 237.167,123.833 236.5,124.5C 234.5,124.5 232.5,124.5 230.5,124.5C 230.5,130.5 230.5,136.5 230.5,142.5C 232.167,142.5 233.833,142.5 235.5,142.5C 236.167,143.167 236.833,143.833 237.5,144.5C 235.265,144.205 233.265,144.539 231.5,145.5C 230.833,151.014 230.167,156.681 229.5,162.5C 228.501,149.183 228.167,135.85 228.5,122.5C 231.833,122.5 235.167,122.5 238.5,122.5 Z"/></g>
<g><path style="opacity:0.012" fill="#edf0f1" d="M 243.5,127.5 C 242.833,127.5 242.5,127.167 242.5,126.5C 243.496,126.586 244.329,126.252 245,125.5C 245.853,127.948 245.353,128.614 243.5,127.5 Z"/></g>
<g><path style="opacity:1" fill="#182f35" d="M 187.5,123.5 C 188.234,124.708 188.567,126.041 188.5,127.5C 187.506,136.652 187.173,145.985 187.5,155.5C 185.526,145.889 184.859,135.889 185.5,125.5C 185.5,125.167 185.5,124.833 185.5,124.5C 186.167,124.167 186.833,123.833 187.5,123.5 Z"/></g>
<g><path style="opacity:0.753" fill="#516a76" d="M 206.5,122.5 C 206.5,122.167 206.5,121.833 206.5,121.5C 207.5,121.5 208.5,121.5 209.5,121.5C 209.649,133.01 209.649,144.677 209.5,156.5C 209.159,144.963 208.159,133.63 206.5,122.5 Z"/></g>
<g><path style="opacity:1" fill="#17333e" d="M 221.5,122.5 C 221.5,134.167 221.5,145.833 221.5,157.5C 220.778,157.082 220.278,156.416 220,155.5C 219.833,150 219.667,144.5 219.5,139C 219.505,133.124 220.171,127.624 221.5,122.5 Z"/></g>
<g><path style="opacity:0.425" fill="#859da4" d="M 236.5,124.5 C 236.5,124.833 236.5,125.167 236.5,125.5C 234.833,125.5 233.167,125.5 231.5,125.5C 231.5,130.833 231.5,136.167 231.5,141.5C 232.833,141.5 234.167,141.5 235.5,141.5C 235.5,141.833 235.5,142.167 235.5,142.5C 233.833,142.5 232.167,142.5 230.5,142.5C 230.5,136.5 230.5,130.5 230.5,124.5C 232.5,124.5 234.5,124.5 236.5,124.5 Z"/></g>
<g><path style="opacity:0.031" fill="#d0d9e8" d="M 26.5,125.5 C 27.8897,126.899 28.8897,128.566 29.5,130.5C 27.0633,129.262 26.0633,127.595 26.5,125.5 Z"/></g>
<g><path style="opacity:0.973" fill="#a0ccb1" d="M 79.5,124.5 C 81.4214,125.363 83.4214,126.029 85.5,126.5C 92.6957,130.421 100.029,133.754 107.5,136.5C 102.916,135.29 98.2495,134.29 93.5,133.5C 92.8333,133.667 92.1667,133.833 91.5,134C 93.0429,135.739 94.7096,137.239 96.5,138.5C 88.7039,135.017 81.0373,131.351 73.5,127.5C 75.5,127.5 77.5,127.5 79.5,127.5C 79.5,126.5 79.5,125.5 79.5,124.5 Z"/></g>
<g><path style="opacity:0.027" fill="#dafffe" d="M 117.5,128.5 C 118.833,129.167 118.833,129.167 117.5,128.5 Z"/></g>
<g><path style="opacity:0.601" fill="#7c9198" d="M 172.5,125.5 C 170.856,125.286 169.356,125.62 168,126.5C 167.636,130.867 167.47,135.034 167.5,139C 168.416,139.278 169.082,139.778 169.5,140.5C 168.5,140.5 167.5,140.5 166.5,140.5C 166.5,135.167 166.5,129.833 166.5,124.5C 168.735,124.205 170.735,124.539 172.5,125.5 Z"/></g>
<g><path style="opacity:1" fill="#113140" d="M 206.5,122.5 C 208.159,133.63 209.159,144.963 209.5,156.5C 209.5,156.833 209.5,157.167 209.5,157.5C 208.609,158.11 207.609,158.443 206.5,158.5C 206.5,146.5 206.5,134.5 206.5,122.5 Z"/></g>
<g><path style="opacity:0.012" fill="#fefffe" d="M 36.5,129.5 C 37.8333,130.167 37.8333,130.167 36.5,129.5 Z"/></g>
<g><path style="opacity:0.01" fill="#fefffe" d="M 245.5,129.5 C 246.525,129.897 246.692,130.563 246,131.5C 245.536,130.906 245.369,130.239 245.5,129.5 Z"/></g>
<g><path style="opacity:1" fill="#395362" d="M 28.5,116.5 C 30.9448,118.547 32.2781,120.88 32.5,123.5C 33.242,125.98 34.242,128.313 35.5,130.5C 33.0465,132.042 32.3799,134.042 33.5,136.5C 31.6736,134.853 30.3403,132.853 29.5,130.5C 28.8897,128.566 27.8897,126.899 26.5,125.5C 25.3381,124.322 24.3381,123.155 23.5,122C 24.056,121.617 24.3893,121.117 24.5,120.5C 24.5,119.833 24.5,119.167 24.5,118.5C 25.7348,118.721 26.7348,119.388 27.5,120.5C 28.4287,119.311 28.762,117.978 28.5,116.5 Z"/></g>
<g><path style="opacity:0.078" fill="#deebf4" d="M 154.5,127.5 C 155.167,129.833 155.833,132.167 156.5,134.5C 156.44,135.043 156.107,135.376 155.5,135.5C 154.52,132.914 154.187,130.247 154.5,127.5 Z"/></g>
<g><path style="opacity:0.01" fill="#fefffe" d="M 181.5,130.5 C 182.525,130.897 182.692,131.563 182,132.5C 181.536,131.906 181.369,131.239 181.5,130.5 Z"/></g>
<g><path style="opacity:0.012" fill="#fefffe" d="M 182.5,134.5 C 183.833,135.167 183.833,135.167 182.5,134.5 Z"/></g>
<g><path style="opacity:0.047" fill="#e9eae9" d="M 40.5,135.5 C 41.8333,136.167 41.8333,136.167 40.5,135.5 Z"/></g>
<g><path style="opacity:1" fill="#223942" d="M 174.5,122.5 C 175.492,122.328 176.158,122.662 176.5,123.5C 176.833,124.5 177.5,125.167 178.5,125.5C 180.156,129.425 180.489,133.425 179.5,137.5C 178.778,137.918 178.278,138.584 178,139.5C 177.667,138.833 177.333,138.167 177,137.5C 176.821,133.975 176.321,130.641 175.5,127.5C 174.222,127.218 173.222,126.551 172.5,125.5C 170.735,124.539 168.735,124.205 166.5,124.5C 166.5,129.833 166.5,135.167 166.5,140.5C 165.833,140.833 165.167,141.167 164.5,141.5C 164.5,135.167 164.5,128.833 164.5,122.5C 167.833,122.5 171.167,122.5 174.5,122.5 Z"/></g>
<g><path style="opacity:0.047" fill="#e9eae9" d="M 182.5,135.5 C 181.833,136.167 181.833,136.167 182.5,135.5 Z"/></g>
<g><path style="opacity:0.346" fill="#9cb4c0" d="M 206.5,121.5 C 206.5,121.833 206.5,122.167 206.5,122.5C 206.5,134.5 206.5,146.5 206.5,158.5C 205.823,147.431 205.157,136.265 204.5,125C 205.833,124 205.833,123 204.5,122C 205.094,121.536 205.761,121.369 206.5,121.5 Z"/></g>
<g><path style="opacity:0.294" fill="#a7bbc5" d="M 239.5,128.5 C 240.641,131.64 240.808,134.973 240,138.5C 239.578,140.426 238.411,141.426 236.5,141.5C 236.5,141.167 236.5,140.833 236.5,140.5C 237.79,139.942 238.623,138.942 239,137.5C 239.498,134.518 239.665,131.518 239.5,128.5 Z"/></g>
<g><path style="opacity:0.031" fill="#e9e9e9" d="M 244.5,136.5 C 244.783,135.711 245.283,135.044 246,134.5C 246.528,135.816 246.028,136.483 244.5,136.5 Z"/></g>
<g><path style="opacity:0.012" fill="#c9d7dd" d="M 33.5,136.5 C 34.9063,136.973 35.573,137.973 35.5,139.5C 34.0937,139.027 33.427,138.027 33.5,136.5 Z"/></g>
<g><path style="opacity:0.031" fill="#defffe" d="M 181.5,138.5 C 180.833,137.167 180.833,137.167 181.5,138.5 Z"/></g>
<g><path style="opacity:0.553" fill="#7c939a" d="M 238.5,122.5 C 235.167,122.5 231.833,122.5 228.5,122.5C 228.167,135.85 228.501,149.183 229.5,162.5C 230.167,156.681 230.833,151.014 231.5,145.5C 231.61,151.289 231.61,157.289 231.5,163.5C 230.178,163.33 229.011,163.663 228,164.5C 227.5,150.171 227.333,135.837 227.5,121.5C 230.079,121.917 232.246,121.25 234,119.5C 235.31,120.897 236.81,121.897 238.5,122.5 Z"/></g>
<g><path style="opacity:0.953" fill="#2d444d" d="M 238.5,122.5 C 240.062,122.733 241.395,123.4 242.5,124.5C 242.5,125.167 242.5,125.833 242.5,126.5C 242.5,127.167 242.833,127.5 243.5,127.5C 243.5,130.5 243.5,133.5 243.5,136.5C 243.5,137.167 243.5,137.833 243.5,138.5C 243.672,139.492 243.338,140.158 242.5,140.5C 241.662,140.842 241.328,141.508 241.5,142.5C 240.71,143.401 239.71,144.068 238.5,144.5C 238.167,144.5 237.833,144.5 237.5,144.5C 236.833,143.833 236.167,143.167 235.5,142.5C 235.5,142.167 235.5,141.833 235.5,141.5C 235.833,141.5 236.167,141.5 236.5,141.5C 238.411,141.426 239.578,140.426 240,138.5C 240.808,134.973 240.641,131.64 239.5,128.5C 238.694,127.272 237.694,126.272 236.5,125.5C 236.5,125.167 236.5,124.833 236.5,124.5C 237.167,123.833 237.833,123.167 238.5,122.5 Z"/></g>
<g><path style="opacity:0.049" fill="#e4efef" d="M 243.5,136.5 C 243.833,136.5 244.167,136.5 244.5,136.5C 246.011,138.838 245.677,139.504 243.5,138.5C 243.5,137.833 243.5,137.167 243.5,136.5 Z"/></g>
<g><path style="opacity:1" fill="#84bd94" d="M 107.5,136.5 C 109.176,138.834 111.509,139.834 114.5,139.5C 114.5,140.5 114.5,141.5 114.5,142.5C 108.782,140.155 102.782,138.822 96.5,138.5C 94.7096,137.239 93.0429,135.739 91.5,134C 92.1667,133.833 92.8333,133.667 93.5,133.5C 98.2495,134.29 102.916,135.29 107.5,136.5 Z"/></g>
<g><path style="opacity:0.38" fill="#8b9fa6" d="M 174.5,122.5 C 171.167,122.5 167.833,122.5 164.5,122.5C 164.5,128.833 164.5,135.167 164.5,141.5C 164.17,148.532 164.503,155.532 165.5,162.5C 166.496,156.202 166.83,149.868 166.5,143.5C 168.735,143.205 170.735,143.539 172.5,144.5C 170.833,144.5 169.167,144.5 167.5,144.5C 167.5,150.833 167.5,157.167 167.5,163.5C 166.167,163.5 164.833,163.5 163.5,163.5C 163.823,149.588 163.49,135.754 162.5,122C 163.416,121.626 164.25,121.126 165,120.5C 168.27,121.132 171.437,121.799 174.5,122.5 Z"/></g>
<g><path style="opacity:0.004" fill="#fefffe" d="M 181.5,138.5 C 182.833,139.167 182.833,139.167 181.5,138.5 Z"/></g>
<g><path style="opacity:0.008" fill="#f4fffe" d="M 236.5,140.5 C 235.711,140.217 235.044,139.717 234.5,139C 235.816,138.472 236.483,138.972 236.5,140.5 Z"/></g>
<g><path style="opacity:0.008" fill="#fefffe" d="M 158.5,139.5 C 159.833,140.167 159.833,140.167 158.5,139.5 Z"/></g>
<g><path style="opacity:0.969" fill="#8498a4" d="M 175.5,127.5 C 176.321,130.641 176.821,133.975 177,137.5C 177.333,138.167 177.667,138.833 178,139.5C 178.278,138.584 178.778,137.918 179.5,137.5C 179.296,139.685 178.63,141.685 177.5,143.5C 176.596,142.791 176.263,141.791 176.5,140.5C 174.833,140.5 173.167,140.5 171.5,140.5C 172.261,139.609 173.261,138.942 174.5,138.5C 175.489,134.893 175.823,131.226 175.5,127.5 Z"/></g>
<g><path style="opacity:0.008" fill="#f0f7fb" d="M 35.5,139.5 C 36.5,139.833 37.1667,140.5 37.5,141.5C 36.1667,141.5 35.5,140.833 35.5,139.5 Z"/></g>
<g><path style="opacity:0.678" fill="#a7cdb3" d="M 96.5,138.5 C 102.782,138.822 108.782,140.155 114.5,142.5C 114.5,141.5 114.5,140.5 114.5,139.5C 111.509,139.834 109.176,138.834 107.5,136.5C 108.496,136.586 109.329,136.252 110,135.5C 111.826,137.074 113.993,137.907 116.5,138C 117.833,139 117.833,140 116.5,141C 117.308,141.308 117.975,141.808 118.5,142.5C 110.666,143.599 103.333,142.266 96.5,138.5 Z"/></g>
<g><path style="opacity:0.565" fill="#afbec4" d="M 158.5,140.5 C 159.804,146.266 159.804,151.933 158.5,157.5C 158.5,152.5 158.5,147.5 158.5,142.5C 155.833,142.5 153.167,142.5 150.5,142.5C 150.369,141.761 150.536,141.094 151,140.5C 153.432,141.45 155.932,141.45 158.5,140.5 Z"/></g>
<g><path style="opacity:1" fill="#29424c" d="M 166.5,140.5 C 167.5,140.5 168.5,140.5 169.5,140.5C 170.167,140.5 170.833,140.5 171.5,140.5C 173.167,140.5 174.833,140.5 176.5,140.5C 176.263,141.791 176.596,142.791 177.5,143.5C 177.963,146.33 178.629,148.997 179.5,151.5C 180.477,154.287 180.81,157.287 180.5,160.5C 179.662,160.842 179.328,161.508 179.5,162.5C 178.5,162.5 177.5,162.5 176.5,162.5C 176.821,157.305 176.487,152.305 175.5,147.5C 174.694,146.272 173.694,145.272 172.5,144.5C 170.735,143.539 168.735,143.205 166.5,143.5C 166.83,149.868 166.496,156.202 165.5,162.5C 164.503,155.532 164.17,148.532 164.5,141.5C 165.167,141.167 165.833,140.833 166.5,140.5 Z"/></g>
<g><path style="opacity:0.031" fill="#defffe" d="M 178.5,142.5 C 179.833,143.167 179.833,143.167 178.5,142.5 Z"/></g>
<g><path style="opacity:0.039" fill="#e0ecf6" d="M 242.5,140.5 C 245.443,143.18 245.11,143.847 241.5,142.5C 241.328,141.508 241.662,140.842 242.5,140.5 Z"/></g>
<g><path style="opacity:0.004" fill="#fefffe" d="M 149.5,144.5 C 148.923,145.773 148.257,145.773 147.5,144.5C 147.97,143.537 148.637,143.537 149.5,144.5 Z"/></g>
<g><path style="opacity:0.957" fill="#19313e" d="M 150.5,142.5 C 153.167,142.5 155.833,142.5 158.5,142.5C 158.5,147.5 158.5,152.5 158.5,157.5C 158.5,157.833 158.5,158.167 158.5,158.5C 158.5,159.833 158.5,161.167 158.5,162.5C 156.577,162.205 154.91,161.372 153.5,160C 154.715,157.904 155.549,158.071 156,160.5C 157.534,159.119 157.368,157.786 155.5,156.5C 155.5,152.5 155.5,148.5 155.5,144.5C 153.833,144.5 152.167,144.5 150.5,144.5C 150.167,144.5 149.833,144.5 149.5,144.5C 149.328,143.508 149.662,142.842 150.5,142.5 Z"/></g>
<g><path style="opacity:0.129" fill="#c6d6dd" d="M 188.5,127.5 C 188.563,137.71 188.563,147.71 188.5,157.5C 187.662,157.158 187.328,156.492 187.5,155.5C 187.173,145.985 187.506,136.652 188.5,127.5 Z"/></g>
<g><path style="opacity:1" fill="#1d3645" d="M 200.5,127.5 C 200.181,137.416 200.514,147.25 201.5,157C 200.934,157.995 200.267,158.828 199.5,159.5C 199.573,157.973 198.906,156.973 197.5,156.5C 197.334,146.828 197.5,137.161 198,127.5C 198.77,126.402 199.603,126.402 200.5,127.5 Z"/></g>
<g><path style="opacity:1" fill="#304b5d" d="M 35.5,130.5 C 35.8333,130.5 36.1667,130.5 36.5,130.5C 37.4746,132.795 38.8079,134.795 40.5,136.5C 43.8419,139.876 47.1752,143.209 50.5,146.5C 46.2155,146.516 45.2155,147.85 47.5,150.5C 43.5644,148.234 40.2311,145.234 37.5,141.5C 37.1667,140.5 36.5,139.833 35.5,139.5C 35.573,137.973 34.9063,136.973 33.5,136.5C 32.3799,134.042 33.0465,132.042 35.5,130.5 Z"/></g>
<g><path style="opacity:0.027" fill="#dadbda" d="M 51.5,144.5 C 52.8333,145.167 52.8333,145.167 51.5,144.5 Z"/></g>
<g><path style="opacity:0.408" fill="#adb9bd" d="M 231.5,145.5 C 233.265,144.539 235.265,144.205 237.5,144.5C 237.833,144.5 238.167,144.5 238.5,144.5C 237.469,145.249 236.302,145.915 235,146.5C 233.989,145.663 232.822,145.33 231.5,145.5 Z"/></g>
<g><path style="opacity:0.035" fill="#e2e3e2" d="M 168.5,146.5 C 169.833,147.167 169.833,147.167 168.5,146.5 Z"/></g>
<g><path style="opacity:0.071" fill="#e2ecec" d="M 173.5,147.5 C 172.761,147.631 172.094,147.464 171.5,147C 172.437,146.308 173.103,146.475 173.5,147.5 Z"/></g>
<g><path style="opacity:0.008" fill="#e6edf1" d="M 55.5,149.5 C 54.5084,149.672 53.8417,149.338 53.5,148.5C 54.9245,146.969 55.5912,147.302 55.5,149.5 Z"/></g>
<g><path style="opacity:0.02" fill="#fefffe" d="M 173.5,147.5 C 174.833,148.167 174.833,148.167 173.5,147.5 Z"/></g>
<g><path style="opacity:0.051" fill="#f1f1f1" d="M 181.5,146.5 C 182.525,146.897 182.692,147.563 182,148.5C 181.536,147.906 181.369,147.239 181.5,146.5 Z"/></g>
<g><path style="opacity:0.11" fill="#c9dee3" d="M 150.5,144.5 C 152.167,144.5 153.833,144.5 155.5,144.5C 155.5,148.5 155.5,152.5 155.5,156.5C 155.5,157.167 155.167,157.5 154.5,157.5C 153.634,153.601 153.634,149.601 154.5,145.5C 152.901,145.768 151.568,145.434 150.5,144.5 Z"/></g>
<g><path style="opacity:0.004" fill="#d2e5ea" d="M 55.5,149.5 C 57.0269,149.427 58.0269,150.094 58.5,151.5C 56.9731,151.573 55.9731,150.906 55.5,149.5 Z"/></g>
<g><path style="opacity:0.008" fill="#f5f5f5" d="M 147.5,148.5 C 148.525,148.897 148.692,149.563 148,150.5C 147.536,149.906 147.369,149.239 147.5,148.5 Z"/></g>
<g><path style="opacity:0.996" fill="#5b7e7e" d="M 177.5,143.5 C 177.833,143.5 178.167,143.5 178.5,143.5C 180.157,146.089 180.491,148.756 179.5,151.5C 178.629,148.997 177.963,146.33 177.5,143.5 Z"/></g>
<g><path style="opacity:1" fill="#304b5b" d="M 50.5,146.5 C 52.0269,146.427 53.0269,147.094 53.5,148.5C 53.8417,149.338 54.5084,149.672 55.5,149.5C 55.9731,150.906 56.9731,151.573 58.5,151.5C 58.8333,151.5 59.1667,151.5 59.5,151.5C 60.6715,152.345 62.0048,153.011 63.5,153.5C 67.3491,155.56 71.3491,157.227 75.5,158.5C 74.9094,159.151 74.2427,159.818 73.5,160.5C 74.6119,161.265 75.2786,162.265 75.5,163.5C 68.9387,162.546 63.272,160.546 58.5,157.5C 57.4863,156.326 56.153,155.66 54.5,155.5C 51.8646,154.189 49.5313,152.522 47.5,150.5C 45.2155,147.85 46.2155,146.516 50.5,146.5 Z"/></g>
<g><path style="opacity:0.02" fill="#cbfffe" d="M 59.5,150.5 C 60.8333,151.167 60.8333,151.167 59.5,150.5 Z"/></g>
<g><path style="opacity:0.016" fill="#fefffe" d="M 181.5,150.5 C 182.833,151.167 182.833,151.167 181.5,150.5 Z"/></g>
<g><path style="opacity:0.088" fill="#d0dfe8" d="M 175.5,147.5 C 176.487,152.305 176.821,157.305 176.5,162.5C 177.5,162.5 178.5,162.5 179.5,162.5C 178.469,163.249 177.302,163.915 176,164.5C 175.501,158.843 175.334,153.176 175.5,147.5 Z"/></g>
<g><path style="opacity:0.027" fill="#dadbda" d="M 63.5,152.5 C 64.8333,153.167 64.8333,153.167 63.5,152.5 Z"/></g>
<g><path style="opacity:0.994" fill="#11303b" d="M 143.5,127.5 C 144.828,132.119 145.494,137.119 145.5,142.5C 145.333,147.5 145.167,152.5 145,157.5C 143.527,147.665 143.027,137.665 143.5,127.5 Z"/></g>
<g><path style="opacity:0.008" fill="#fefffe" d="M 147.5,154.5 C 148.833,155.167 148.833,155.167 147.5,154.5 Z"/></g>
<g><path style="opacity:0.055" fill="#bbc9d2" d="M 54.5,155.5 C 56.153,155.66 57.4863,156.326 58.5,157.5C 56.6203,157.771 55.287,157.104 54.5,155.5 Z"/></g>
<g><path style="opacity:0.963" fill="#71898e" d="M 116.5,156.5 C 115.25,156.577 114.417,157.244 114,158.5C 112.989,157.663 111.822,157.33 110.5,157.5C 110.389,155.352 111.056,155.019 112.5,156.5C 112.833,155.833 113.167,155.167 113.5,154.5C 115.487,154.868 116.487,155.534 116.5,156.5 Z"/></g>
<g><path style="opacity:0.067" fill="#e0e1e0" d="M 149.5,157.5 C 150.833,158.167 150.833,158.167 149.5,157.5 Z"/></g>
<g><path style="opacity:0.047" fill="#b6cada" d="M 109.5,157.5 C 107.189,159.068 104.522,159.902 101.5,160C 94.8417,160.5 88.175,160.666 81.5,160.5C 81.5,160.167 81.5,159.833 81.5,159.5C 90.9244,159.846 100.258,159.18 109.5,157.5 Z"/></g>
<g><path style="opacity:0.013" fill="#fefffe" d="M 161.5,159.5 C 162.573,160.251 162.74,161.251 162,162.5C 160.272,161.648 160.105,160.648 161.5,159.5 Z"/></g>
<g><path style="opacity:0.978" fill="#485b66" d="M 221.5,121.5 C 221.5,121.833 221.5,122.167 221.5,122.5C 220.171,127.624 219.505,133.124 219.5,139C 219.667,144.5 219.833,150 220,155.5C 220.278,156.416 220.778,157.082 221.5,157.5C 221.5,157.833 221.5,158.167 221.5,158.5C 221.267,160.062 220.6,161.395 219.5,162.5C 218.001,164.363 216.334,165.029 214.5,164.5C 212.83,164.249 211.33,163.582 210,162.5C 209.667,162.833 209.333,163.167 209,163.5C 208.153,161.807 207.32,160.14 206.5,158.5C 207.609,158.443 208.609,158.11 209.5,157.5C 210.833,157.5 211.5,158.167 211.5,159.5C 212.833,160.833 214.167,160.833 215.5,159.5C 217.067,158.319 217.901,156.653 218,154.5C 218.394,143.337 218.561,132.337 218.5,121.5C 219.5,121.5 220.5,121.5 221.5,121.5 Z"/></g>
<g><path style="opacity:0.243" fill="#b7cdd6" d="M 215.5,159.5 C 214.167,160.833 212.833,160.833 211.5,159.5C 213.139,159.074 214.472,159.074 215.5,159.5 Z"/></g>
<g><path style="opacity:1" fill="#173141" d="M 116.5,156.5 C 116.5,157.833 116.5,159.167 116.5,160.5C 113.603,161.129 110.936,162.129 108.5,163.5C 107.833,163.5 107.167,163.5 106.5,163.5C 104.179,163.771 102.179,163.104 100.5,161.5C 99.8333,161.833 99.1667,162.167 98.5,162.5C 92.1275,161.911 86.4609,161.245 81.5,160.5C 88.175,160.666 94.8417,160.5 101.5,160C 104.522,159.902 107.189,159.068 109.5,157.5C 109.833,157.5 110.167,157.5 110.5,157.5C 111.822,157.33 112.989,157.663 114,158.5C 114.417,157.244 115.25,156.577 116.5,156.5 Z"/></g>
<g><path style="opacity:0.039" fill="#eeeeee" d="M 117.5,159.5 C 118.525,159.897 118.692,160.563 118,161.5C 117.536,160.906 117.369,160.239 117.5,159.5 Z"/></g>
<g><path style="opacity:0.008" fill="#eefcfb" d="M 158.5,158.5 C 159.793,160.364 159.793,162.364 158.5,164.5C 157.893,164.376 157.56,164.043 157.5,163.5C 158.167,163.5 158.5,163.167 158.5,162.5C 158.5,161.167 158.5,159.833 158.5,158.5 Z"/></g>
<g><path style="opacity:1" fill="#324f5a" d="M 75.5,158.5 C 77.6208,158.325 79.6208,158.659 81.5,159.5C 81.5,159.833 81.5,160.167 81.5,160.5C 86.4609,161.245 92.1275,161.911 98.5,162.5C 99.1667,162.167 99.8333,161.833 100.5,161.5C 102.179,163.104 104.179,163.771 106.5,163.5C 101.755,164.999 96.7551,165.666 91.5,165.5C 85.9233,165.632 80.59,164.965 75.5,163.5C 75.2786,162.265 74.6119,161.265 73.5,160.5C 74.2427,159.818 74.9094,159.151 75.5,158.5 Z"/></g>
<g><path style="opacity:0.043" fill="#c7dadf" d="M 116.5,160.5 C 116.092,161.643 115.425,162.643 114.5,163.5C 112.599,163.972 110.599,163.972 108.5,163.5C 110.936,162.129 113.603,161.129 116.5,160.5 Z"/></g>
<g><path style="opacity:0.027" fill="#e7fffe" d="M 180.5,160.5 C 181.525,160.897 181.692,161.563 181,162.5C 180.536,161.906 180.369,161.239 180.5,160.5 Z"/></g>
<g><path style="opacity:0.016" fill="#fefffe" d="M 185.5,161.5 C 184.833,162.167 184.833,162.167 185.5,161.5 Z"/></g>
<g><path style="opacity:0.931" fill="#3b5158" d="M 185.5,125.5 C 184.859,135.889 185.526,145.889 187.5,155.5C 187.328,156.492 187.662,157.158 188.5,157.5C 191.167,160.167 193.833,160.167 196.5,157.5C 197.167,157.5 197.5,157.167 197.5,156.5C 198.906,156.973 199.573,157.973 199.5,159.5C 199.011,162.324 197.344,163.657 194.5,163.5C 193.5,163.5 192.5,163.5 191.5,163.5C 190.833,163.5 190.5,163.833 190.5,164.5C 188.999,163.248 187.332,162.248 185.5,161.5C 185.489,159.983 184.823,158.816 183.5,158C 183.999,147.233 184.666,136.4 185.5,125.5 Z"/></g>
<g><path style="opacity:0.016" fill="#fefffe" d="M 219.5,162.5 C 220.833,163.167 220.833,163.167 219.5,162.5 Z"/></g>
<g><path style="opacity:0.016" fill="#fefffe" d="M 186.5,163.5 C 187.833,164.167 187.833,164.167 186.5,163.5 Z"/></g>
<g><path style="opacity:0.024" fill="#e6fafa" d="M 191.5,163.5 C 192.5,163.5 193.5,163.5 194.5,163.5C 193.295,165.138 191.962,165.471 190.5,164.5C 191.167,164.5 191.5,164.167 191.5,163.5 Z"/></g>
<g><path style="opacity:0.016" fill="#fefffe" d="M 214.5,164.5 C 215.833,165.167 215.833,165.167 214.5,164.5 Z"/></g>
<g><path style="opacity:0.008" fill="#fefffe" d="M 126.5,166.5 C 127.833,167.167 127.833,167.167 126.5,166.5 Z"/></g>
</svg>
